<?xml version="1.0"?>
<!DOCTYPE svg PUBLIC "-//W3C//DTD SVG 1.0//EN" "http://www.w3.org/TR/2001/REC-SVG-20010904/DTD/svg10.dtd">
<svg xmlns="http://www.w3.org/2000/svg" xmlns:xlink="http://www.w3.org/1999/xlink" xmlns:jfreesvg="http://www.jfree.org/jfreesvg/svg" width="1733" height="1242" text-rendering="auto" shape-rendering="auto">
<defs></defs>
<line x1="1102.47" y1="299.16" x2="1110.32" y2="428.04" style="stroke-width: 0.5;stroke: rgb(0,0,0);stroke-opacity: 1.0;stroke-linecap: square;" /><line x1="1110.32" y1="428.04" x2="1183.7" y2="327.26" style="stroke-width: 0.5;stroke: rgb(0,0,0);stroke-opacity: 1.0;stroke-linecap: square;" /><line x1="1110.32" y1="428.04" x2="1232.47" y2="420.43" style="stroke-width: 0.5;stroke: rgb(0,0,0);stroke-opacity: 1.0;stroke-linecap: square;" /><line x1="800.99" y1="381.04" x2="879.08" y2="413" style="stroke-width: 0.5;stroke: rgb(0,0,0);stroke-opacity: 1.0;stroke-linecap: square;" /><line x1="1110.32" y1="428.04" x2="1037.23" y2="522.06" style="stroke-width: 0.5;stroke: rgb(0,0,0);stroke-opacity: 1.0;stroke-linecap: square;" /><line x1="861.97" y1="288.23" x2="930.98" y2="340.09" style="stroke-width: 0.5;stroke: rgb(0,0,0);stroke-opacity: 1.0;stroke-linecap: square;" /><line x1="360.95" y1="993.24" x2="319.58" y2="912.45" style="stroke-width: 0.5;stroke: rgb(0,0,0);stroke-opacity: 1.0;stroke-linecap: square;" /><line x1="1110.32" y1="428.04" x2="1087.58" y2="547.75" style="stroke-width: 0.5;stroke: rgb(0,0,0);stroke-opacity: 1.0;stroke-linecap: square;" /><line x1="1102.47" y1="299.16" x2="1128.16" y2="216.18" style="stroke-width: 0.5;stroke: rgb(0,0,0);stroke-opacity: 1.0;stroke-linecap: square;" /><line x1="1110.32" y1="428.04" x2="1206.67" y2="354.46" style="stroke-width: 0.5;stroke: rgb(0,0,0);stroke-opacity: 1.0;stroke-linecap: square;" /><line x1="1110.32" y1="428.04" x2="1232.6" y2="383.68" style="stroke-width: 0.5;stroke: rgb(0,0,0);stroke-opacity: 1.0;stroke-linecap: square;" /><line x1="319.58" y1="912.45" x2="294.5" y2="997.97" style="stroke-width: 0.5;stroke: rgb(0,0,0);stroke-opacity: 1.0;stroke-linecap: square;" /><line x1="1110.32" y1="428.04" x2="1131.01" y2="548.11" style="stroke-width: 0.5;stroke: rgb(0,0,0);stroke-opacity: 1.0;stroke-linecap: square;" /><line x1="360.95" y1="993.24" x2="329.58" y2="1072" style="stroke-width: 0.5;stroke: rgb(0,0,0);stroke-opacity: 1.0;stroke-linecap: square;" /><line x1="294.5" y1="997.97" x2="329.58" y2="1072" style="stroke-width: 0.5;stroke: rgb(0,0,0);stroke-opacity: 1.0;stroke-linecap: square;" /><line x1="1110.32" y1="428.04" x2="1050.13" y2="325.17" style="stroke-width: 0.5;stroke: rgb(0,0,0);stroke-opacity: 1.0;stroke-linecap: square;" /><line x1="1110.32" y1="428.04" x2="1168.16" y2="535.45" style="stroke-width: 0.5;stroke: rgb(0,0,0);stroke-opacity: 1.0;stroke-linecap: square;" /><line x1="1110.32" y1="428.04" x2="1229.5" y2="454.84" style="stroke-width: 0.5;stroke: rgb(0,0,0);stroke-opacity: 1.0;stroke-linecap: square;" /><line x1="360.95" y1="993.24" x2="420.62" y2="935.76" style="stroke-width: 0.5;stroke: rgb(0,0,0);stroke-opacity: 1.0;stroke-linecap: square;" /><line x1="244.47" y1="854.05" x2="320.71" y2="830.39" style="stroke-width: 0.5;stroke: rgb(0,0,0);stroke-opacity: 1.0;stroke-linecap: square;" /><line x1="244.47" y1="854.05" x2="170" y2="816.33" style="stroke-width: 0.5;stroke: rgb(0,0,0);stroke-opacity: 1.0;stroke-linecap: square;" /><line x1="319.58" y1="912.45" x2="401.65" y2="852.86" style="stroke-width: 0.5;stroke: rgb(0,0,0);stroke-opacity: 1.0;stroke-linecap: square;" /><line x1="420.62" y1="935.76" x2="401.65" y2="852.86" style="stroke-width: 0.5;stroke: rgb(0,0,0);stroke-opacity: 1.0;stroke-linecap: square;" /><line x1="1110.32" y1="428.04" x2="1195.6" y2="515.41" style="stroke-width: 0.5;stroke: rgb(0,0,0);stroke-opacity: 1.0;stroke-linecap: square;" /><line x1="401.65" y1="852.86" x2="355.72" y2="784.92" style="stroke-width: 0.5;stroke: rgb(0,0,0);stroke-opacity: 1.0;stroke-linecap: square;" /><line x1="1050.73" y1="867.79" x2="1002.38" y2="801.01" style="stroke-width: 0.5;stroke: rgb(0,0,0);stroke-opacity: 1.0;stroke-linecap: square;" /><line x1="537.53" y1="413.29" x2="560.07" y2="492.56" style="stroke-width: 0.5;stroke: rgb(0,0,0);stroke-opacity: 1.0;stroke-linecap: square;" /><line x1="727.02" y1="848.84" x2="721.66" y2="766.88" style="stroke-width: 0.5;stroke: rgb(0,0,0);stroke-opacity: 1.0;stroke-linecap: square;" /><line x1="1110.32" y1="428.04" x2="963.76" y2="435.29" style="stroke-width: 0.5;stroke: rgb(0,0,0);stroke-opacity: 1.0;stroke-linecap: square;" /><line x1="963.76" y1="435.29" x2="964.32" y2="516.25" style="stroke-width: 0.5;stroke: rgb(0,0,0);stroke-opacity: 1.0;stroke-linecap: square;" /><line x1="887.27" y1="174.96" x2="931.99" y2="247.46" style="stroke-width: 0.5;stroke: rgb(0,0,0);stroke-opacity: 1.0;stroke-linecap: square;" /><line x1="931.99" y1="247.46" x2="930.98" y2="340.09" style="stroke-width: 0.5;stroke: rgb(0,0,0);stroke-opacity: 1.0;stroke-linecap: square;" /><line x1="931.99" y1="247.46" x2="963.43" y2="170" style="stroke-width: 0.5;stroke: rgb(0,0,0);stroke-opacity: 1.0;stroke-linecap: square;" /><line x1="401.65" y1="852.86" x2="467.34" y2="773.6" style="stroke-width: 0.5;stroke: rgb(0,0,0);stroke-opacity: 1.0;stroke-linecap: square;" /><line x1="467.34" y1="773.6" x2="554.18" y2="727.58" style="stroke-width: 0.5;stroke: rgb(0,0,0);stroke-opacity: 1.0;stroke-linecap: square;" /><line x1="554.18" y1="727.58" x2="579.67" y2="805.56" style="stroke-width: 0.5;stroke: rgb(0,0,0);stroke-opacity: 1.0;stroke-linecap: square;" /><line x1="482.08" y1="594.22" x2="569.39" y2="579.96" style="stroke-width: 0.5;stroke: rgb(0,0,0);stroke-opacity: 1.0;stroke-linecap: square;" /><line x1="244.47" y1="854.05" x2="319.58" y2="912.45" style="stroke-width: 0.5;stroke: rgb(0,0,0);stroke-opacity: 1.0;stroke-linecap: square;" /><line x1="320.71" y1="830.39" x2="401.65" y2="852.86" style="stroke-width: 0.5;stroke: rgb(0,0,0);stroke-opacity: 1.0;stroke-linecap: square;" /><line x1="1110.32" y1="428.04" x2="1145.83" y2="309.33" style="stroke-width: 0.5;stroke: rgb(0,0,0);stroke-opacity: 1.0;stroke-linecap: square;" /><line x1="1110.32" y1="428.04" x2="1217.56" y2="487.36" style="stroke-width: 0.5;stroke: rgb(0,0,0);stroke-opacity: 1.0;stroke-linecap: square;" /><line x1="319.58" y1="912.45" x2="249.14" y2="961.43" style="stroke-width: 0.5;stroke: rgb(0,0,0);stroke-opacity: 1.0;stroke-linecap: square;" /><line x1="1486.6" y1="296.97" x2="1563.72" y2="268.58" style="stroke-width: 0.5;stroke: rgb(0,0,0);stroke-opacity: 1.0;stroke-linecap: square;" /><line x1="879.08" y1="413" x2="963.76" y2="435.29" style="stroke-width: 0.5;stroke: rgb(0,0,0);stroke-opacity: 1.0;stroke-linecap: square;" /><line x1="319.58" y1="912.45" x2="232.71" y2="910.84" style="stroke-width: 0.5;stroke: rgb(0,0,0);stroke-opacity: 1.0;stroke-linecap: square;" /><line x1="930.98" y1="340.09" x2="963.76" y2="435.29" style="stroke-width: 0.5;stroke: rgb(0,0,0);stroke-opacity: 1.0;stroke-linecap: square;" /><line x1="994.01" y1="359.07" x2="963.76" y2="435.29" style="stroke-width: 0.5;stroke: rgb(0,0,0);stroke-opacity: 1.0;stroke-linecap: square;" /><line x1="540.11" y1="647.02" x2="554.18" y2="727.58" style="stroke-width: 0.5;stroke: rgb(0,0,0);stroke-opacity: 1.0;stroke-linecap: square;" /><line x1="396.78" y1="728.61" x2="467.34" y2="773.6" style="stroke-width: 0.5;stroke: rgb(0,0,0);stroke-opacity: 1.0;stroke-linecap: square;" /><line x1="467.34" y1="773.6" x2="454.97" y2="680.38" style="stroke-width: 0.5;stroke: rgb(0,0,0);stroke-opacity: 1.0;stroke-linecap: square;" /><line x1="383.73" y1="633" x2="454.97" y2="680.38" style="stroke-width: 0.5;stroke: rgb(0,0,0);stroke-opacity: 1.0;stroke-linecap: square;" /><line x1="429.21" y1="527.72" x2="482.08" y2="594.22" style="stroke-width: 0.5;stroke: rgb(0,0,0);stroke-opacity: 1.0;stroke-linecap: square;" /><line x1="560.07" y1="492.56" x2="569.39" y2="579.96" style="stroke-width: 0.5;stroke: rgb(0,0,0);stroke-opacity: 1.0;stroke-linecap: square;" /><line x1="454.97" y1="680.38" x2="482.08" y2="594.22" style="stroke-width: 0.5;stroke: rgb(0,0,0);stroke-opacity: 1.0;stroke-linecap: square;" /><line x1="554.18" y1="727.58" x2="624.01" y2="655.6" style="stroke-width: 0.5;stroke: rgb(0,0,0);stroke-opacity: 1.0;stroke-linecap: square;" /><line x1="569.39" y1="579.96" x2="624.01" y2="655.6" style="stroke-width: 0.5;stroke: rgb(0,0,0);stroke-opacity: 1.0;stroke-linecap: square;" /><line x1="923" y1="828.47" x2="931.9" y2="744.04" style="stroke-width: 0.5;stroke: rgb(0,0,0);stroke-opacity: 1.0;stroke-linecap: square;" /><line x1="1002.38" y1="801.01" x2="931.9" y2="744.04" style="stroke-width: 0.5;stroke: rgb(0,0,0);stroke-opacity: 1.0;stroke-linecap: square;" /><line x1="963.76" y1="435.29" x2="886.23" y2="512.74" style="stroke-width: 0.5;stroke: rgb(0,0,0);stroke-opacity: 1.0;stroke-linecap: square;" /><line x1="919.6" y1="593.53" x2="886.23" y2="512.74" style="stroke-width: 0.5;stroke: rgb(0,0,0);stroke-opacity: 1.0;stroke-linecap: square;" /><line x1="886.23" y1="512.74" x2="818.81" y2="593.87" style="stroke-width: 0.5;stroke: rgb(0,0,0);stroke-opacity: 1.0;stroke-linecap: square;" /><line x1="818.81" y1="593.87" x2="865.68" y2="674.64" style="stroke-width: 0.5;stroke: rgb(0,0,0);stroke-opacity: 1.0;stroke-linecap: square;" /><line x1="931.9" y1="744.04" x2="865.68" y2="674.64" style="stroke-width: 0.5;stroke: rgb(0,0,0);stroke-opacity: 1.0;stroke-linecap: square;" /><line x1="818.81" y1="593.87" x2="725.87" y2="629.2" style="stroke-width: 0.5;stroke: rgb(0,0,0);stroke-opacity: 1.0;stroke-linecap: square;" /><line x1="624.01" y1="655.6" x2="725.87" y2="629.2" style="stroke-width: 0.5;stroke: rgb(0,0,0);stroke-opacity: 1.0;stroke-linecap: square;" /><line x1="838.87" y1="762.83" x2="865.68" y2="674.64" style="stroke-width: 0.5;stroke: rgb(0,0,0);stroke-opacity: 1.0;stroke-linecap: square;" /><line x1="721.66" y1="766.88" x2="725.87" y2="629.2" style="stroke-width: 0.5;stroke: rgb(0,0,0);stroke-opacity: 1.0;stroke-linecap: square;" /><line x1="1232.6" y1="383.68" x2="1486.6" y2="296.97" style="stroke-width: 0.5;stroke: rgb(0,0,0);stroke-opacity: 1.0;stroke-linecap: square;" /><ellipse cx="1102.47" cy="299.16" rx="17.1" ry="17.1" style="fill: rgb(255,255,255); fill-opacity: 1.0" /><ellipse cx="1102.47" cy="299.16" rx="17.1" ry="17.1" style="stroke-width: 0.5;stroke: rgb(0,0,0);stroke-opacity: 1.0;stroke-linecap: square;; fill: none" /><g style="fill: rgb(227,26,28); fill-opacity: 1.0; stroke: none" ><path d="M 1119.57 299.16 C 1119.57 291.75 1114.8 285.19 1107.76 282.9 L 1102.47 299.16 Z "/></g><g style="fill: rgb(251,154,153); fill-opacity: 1.0; stroke: none" ><path d="M 1107.76 282.9 C 1100.08 280.4 1091.7 283.62 1087.66 290.61 C 1083.62 297.61 1085.03 306.47 1091.03 311.87 C 1097.03 317.28 1105.99 317.75 1112.52 313 L 1102.47 299.16 Z "/></g><g style="fill: rgb(166,206,227); fill-opacity: 1.0; stroke: none" ><path d="M 1112.52 313 C 1113.98 311.95 1115.25 310.67 1116.31 309.22 L 1102.47 299.16 Z "/></g><g style="fill: rgb(166,206,227); fill-opacity: 1.0; stroke: none" ><path d="M 1116.31 309.22 C 1118.43 306.29 1119.57 302.78 1119.57 299.16 L 1102.47 299.16 Z "/></g><ellipse cx="1110.32" cy="428.04" rx="75" ry="75" style="fill: rgb(255,255,255); fill-opacity: 1.0" /><ellipse cx="1110.32" cy="428.04" rx="75" ry="75" style="stroke-width: 0.5;stroke: rgb(0,0,0);stroke-opacity: 1.0;stroke-linecap: square;; fill: none" /><g style="fill: rgb(253,191,111); fill-opacity: 1.0; stroke: none" ><path d="M 1185.32 428.04 C 1185.32 417.08 1182.91 406.25 1178.28 396.32 L 1110.32 428.04 Z "/></g><g style="fill: rgb(253,191,111); fill-opacity: 1.0; stroke: none" ><path d="M 1178.28 396.32 C 1177.51 394.67 1176.68 393.05 1175.79 391.46 L 1110.32 428.04 Z "/></g><g style="fill: rgb(255,127,0); fill-opacity: 1.0; stroke: none" ><path d="M 1175.79 391.46 C 1170.75 382.43 1163.89 374.54 1155.64 368.29 L 1110.32 428.04 Z "/></g><g style="fill: rgb(255,255,255); fill-opacity: 1.0; stroke: none" ><path d="M 1155.64 368.29 C 1154.19 367.19 1152.7 366.14 1151.18 365.15 L 1110.32 428.04 Z "/></g><g style="fill: rgb(202,178,214); fill-opacity: 1.0; stroke: none" ><path d="M 1151.18 365.15 C 1148.63 363.5 1145.99 362 1143.27 360.67 L 1110.32 428.04 Z "/></g><g style="fill: rgb(178,223,138); fill-opacity: 1.0; stroke: none" ><path d="M 1143.27 360.67 C 1135.62 356.93 1127.39 354.52 1118.94 353.54 L 1110.32 428.04 Z "/></g><g style="fill: rgb(31,120,180); fill-opacity: 1.0; stroke: none" ><path d="M 1118.94 353.54 C 1114.12 352.98 1109.25 352.89 1104.41 353.27 L 1110.32 428.04 Z "/></g><g style="fill: rgb(51,160,44); fill-opacity: 1.0; stroke: none" ><path d="M 1104.41 353.27 C 1094.71 354.04 1085.24 356.69 1076.55 361.07 L 1110.32 428.04 Z "/></g><g style="fill: rgb(178,223,138); fill-opacity: 1.0; stroke: none" ><path d="M 1076.55 361.07 C 1073.3 362.71 1070.17 364.58 1067.2 366.68 L 1110.32 428.04 Z "/></g><g style="fill: rgb(51,160,44); fill-opacity: 1.0; stroke: none" ><path d="M 1067.2 366.68 C 1050.6 378.34 1039.43 396.23 1036.25 416.26 L 1110.32 428.04 Z "/></g><g style="fill: rgb(251,154,153); fill-opacity: 1.0; stroke: none" ><path d="M 1036.25 416.26 C 1033.85 431.35 1036.11 446.82 1042.74 460.58 L 1110.32 428.04 Z "/></g><g style="fill: rgb(227,26,28); fill-opacity: 1.0; stroke: none" ><path d="M 1042.74 460.58 C 1048.84 473.23 1058.36 483.92 1070.22 491.42 L 1110.32 428.04 Z "/></g><g style="fill: rgb(251,154,153); fill-opacity: 1.0; stroke: none" ><path d="M 1070.22 491.42 C 1078.45 496.63 1087.61 500.18 1097.19 501.88 L 1110.32 428.04 Z "/></g><g style="fill: rgb(106,61,154); fill-opacity: 1.0; stroke: none" ><path d="M 1097.19 501.88 C 1114.08 504.88 1131.48 502.01 1146.5 493.74 L 1110.32 428.04 Z "/></g><g style="fill: rgb(166,206,227); fill-opacity: 1.0; stroke: none" ><path d="M 1146.5 493.74 C 1157.17 487.86 1166.26 479.46 1172.96 469.28 L 1110.32 428.04 Z "/></g><g style="fill: rgb(166,206,227); fill-opacity: 1.0; stroke: none" ><path d="M 1172.96 469.28 C 1175.3 465.73 1177.33 461.99 1179.03 458.1 L 1110.32 428.04 Z "/></g><g style="fill: rgb(31,120,180); fill-opacity: 1.0; stroke: none" ><path d="M 1179.03 458.1 C 1183.18 448.62 1185.32 438.39 1185.32 428.04 L 1110.32 428.04 Z "/></g><ellipse cx="887.27" cy="174.96" rx="16.13" ry="16.13" style="fill: rgb(255,255,255); fill-opacity: 1.0" /><ellipse cx="887.27" cy="174.96" rx="16.13" ry="16.13" style="stroke-width: 0.5;stroke: rgb(0,0,0);stroke-opacity: 1.0;stroke-linecap: square;; fill: none" /><g style="fill: rgb(178,223,138); fill-opacity: 1.0; stroke: none" ><path d="M 903.41 174.96 C 903.41 166.67 897.11 159.72 888.86 158.91 C 880.6 158.09 873.07 163.68 871.45 171.82 C 869.83 179.95 874.65 187.99 882.59 190.4 C 890.53 192.81 899 188.8 902.18 181.14 L 887.27 174.96 Z "/></g><g style="fill: rgb(166,206,227); fill-opacity: 1.0; stroke: none" ><path d="M 902.18 181.14 C 902.99 179.18 903.41 177.08 903.41 174.96 L 887.27 174.96 Z "/></g><ellipse cx="360.95" cy="993.24" rx="12.5" ry="12.5" style="fill: rgb(255,255,255); fill-opacity: 1.0" /><ellipse cx="360.95" cy="993.24" rx="12.5" ry="12.5" style="stroke-width: 0.5;stroke: rgb(0,0,0);stroke-opacity: 1.0;stroke-linecap: square;; fill: none" /><ellipse cx="360.95" cy="993.24" rx="12.5" ry="12.5" style="fill: rgb(255,255,255); fill-opacity: 1.0" /><ellipse cx="1183.7" cy="327.26" rx="17.83" ry="17.83" style="fill: rgb(255,255,255); fill-opacity: 1.0" /><ellipse cx="1183.7" cy="327.26" rx="17.83" ry="17.83" style="stroke-width: 0.5;stroke: rgb(0,0,0);stroke-opacity: 1.0;stroke-linecap: square;; fill: none" /><g style="fill: rgb(253,191,111); fill-opacity: 1.0; stroke: none" ><path d="M 1201.53 327.26 C 1201.53 321.47 1198.71 316.03 1193.98 312.69 C 1189.24 309.35 1183.18 308.52 1177.73 310.46 L 1183.7 327.26 Z "/></g><g style="fill: rgb(178,223,138); fill-opacity: 1.0; stroke: none" ><path d="M 1177.73 310.46 C 1172.27 312.4 1168.09 316.87 1166.53 322.45 C 1164.96 328.03 1166.21 334.02 1169.87 338.51 L 1183.7 327.26 Z "/></g><g style="fill: rgb(251,154,153); fill-opacity: 1.0; stroke: none" ><path d="M 1169.87 338.51 C 1170.89 339.77 1172.09 340.89 1173.41 341.83 L 1183.7 327.26 Z "/></g><g style="fill: rgb(227,26,28); fill-opacity: 1.0; stroke: none" ><path d="M 1173.41 341.83 C 1177.45 344.67 1182.49 345.72 1187.32 344.72 C 1192.16 343.71 1196.36 340.74 1198.93 336.52 L 1183.7 327.26 Z "/></g><g style="fill: rgb(251,154,153); fill-opacity: 1.0; stroke: none" ><path d="M 1198.93 336.52 C 1200.63 333.73 1201.53 330.53 1201.53 327.26 L 1183.7 327.26 Z "/></g><ellipse cx="244.47" cy="854.05" rx="12.98" ry="12.98" style="fill: rgb(255,255,255); fill-opacity: 1.0" /><ellipse cx="244.47" cy="854.05" rx="12.98" ry="12.98" style="stroke-width: 0.5;stroke: rgb(0,0,0);stroke-opacity: 1.0;stroke-linecap: square;; fill: none" /><ellipse cx="244.47" cy="854.05" rx="12.98" ry="12.98" style="fill: rgb(255,255,255); fill-opacity: 1.0" /><ellipse cx="800.99" cy="381.04" rx="14.2" ry="14.2" style="fill: rgb(255,255,255); fill-opacity: 1.0" /><ellipse cx="800.99" cy="381.04" rx="14.2" ry="14.2" style="stroke-width: 0.5;stroke: rgb(0,0,0);stroke-opacity: 1.0;stroke-linecap: square;; fill: none" /><ellipse cx="800.99" cy="381.04" rx="14.2" ry="14.2" style="fill: rgb(31,120,180); fill-opacity: 1.0" /><ellipse cx="1232.47" cy="420.43" rx="13.71" ry="13.71" style="fill: rgb(255,255,255); fill-opacity: 1.0" /><ellipse cx="1232.47" cy="420.43" rx="13.71" ry="13.71" style="stroke-width: 0.5;stroke: rgb(0,0,0);stroke-opacity: 1.0;stroke-linecap: square;; fill: none" /><g style="fill: rgb(253,191,111); fill-opacity: 1.0; stroke: none" ><path d="M 1246.18 420.43 C 1246.18 413.78 1241.4 408.09 1234.85 406.93 C 1228.29 405.77 1221.86 409.49 1219.58 415.74 C 1217.31 422 1219.85 428.98 1225.61 432.31 L 1232.47 420.43 Z "/></g><g style="fill: rgb(251,154,153); fill-opacity: 1.0; stroke: none" ><path d="M 1225.61 432.31 C 1229.85 434.76 1235.08 434.76 1239.32 432.31 C 1243.56 429.86 1246.18 425.33 1246.18 420.43 L 1232.47 420.43 Z "/></g><ellipse cx="861.97" cy="288.23" rx="15.16" ry="15.16" style="fill: rgb(255,255,255); fill-opacity: 1.0" /><ellipse cx="861.97" cy="288.23" rx="15.16" ry="15.16" style="stroke-width: 0.5;stroke: rgb(0,0,0);stroke-opacity: 1.0;stroke-linecap: square;; fill: none" /><g style="fill: rgb(227,26,28); fill-opacity: 1.0; stroke: none" ><path d="M 877.14 288.23 C 877.14 279.86 870.35 273.07 861.97 273.07 C 853.6 273.07 846.81 279.86 846.81 288.23 L 861.97 288.23 Z "/></g><g style="fill: rgb(253,191,111); fill-opacity: 1.0; stroke: none" ><path d="M 846.81 288.23 C 846.81 290.89 847.51 293.51 848.84 295.81 L 861.97 288.23 Z "/></g><g style="fill: rgb(255,127,0); fill-opacity: 1.0; stroke: none" ><path d="M 848.84 295.81 C 851.55 300.51 856.55 303.4 861.97 303.4 L 861.97 288.23 Z "/></g><g style="fill: rgb(51,160,44); fill-opacity: 1.0; stroke: none" ><path d="M 861.97 303.4 C 870.35 303.4 877.14 296.61 877.14 288.23 L 861.97 288.23 Z "/></g><ellipse cx="879.08" cy="413" rx="14.2" ry="14.2" style="fill: rgb(255,255,255); fill-opacity: 1.0" /><ellipse cx="879.08" cy="413" rx="14.2" ry="14.2" style="stroke-width: 0.5;stroke: rgb(0,0,0);stroke-opacity: 1.0;stroke-linecap: square;; fill: none" /><g style="fill: rgb(227,26,28); fill-opacity: 1.0; stroke: none" ><path d="M 893.28 413 C 893.28 405.16 886.92 398.81 879.08 398.81 L 879.08 413 Z "/></g><g style="fill: rgb(202,178,214); fill-opacity: 1.0; stroke: none" ><path d="M 879.08 398.81 C 875.32 398.81 871.71 400.3 869.05 402.97 L 879.08 413 Z "/></g><g style="fill: rgb(251,154,153); fill-opacity: 1.0; stroke: none" ><path d="M 869.05 402.97 C 866.38 405.63 864.89 409.24 864.89 413 L 879.08 413 Z "/></g><g style="fill: rgb(166,206,227); fill-opacity: 1.0; stroke: none" ><path d="M 864.89 413 C 864.89 420.84 871.24 427.2 879.08 427.2 C 886.92 427.2 893.28 420.84 893.28 413 L 879.08 413 Z "/></g><ellipse cx="1037.23" cy="522.06" rx="12.74" ry="12.74" style="fill: rgb(255,255,255); fill-opacity: 1.0" /><ellipse cx="1037.23" cy="522.06" rx="12.74" ry="12.74" style="stroke-width: 0.5;stroke: rgb(0,0,0);stroke-opacity: 1.0;stroke-linecap: square;; fill: none" /><ellipse cx="1037.23" cy="522.06" rx="12.74" ry="12.74" style="fill: rgb(166,206,227); fill-opacity: 1.0" /><ellipse cx="964.32" cy="516.25" rx="12.74" ry="12.74" style="fill: rgb(255,255,255); fill-opacity: 1.0" /><ellipse cx="964.32" cy="516.25" rx="12.74" ry="12.74" style="stroke-width: 0.5;stroke: rgb(0,0,0);stroke-opacity: 1.0;stroke-linecap: square;; fill: none" /><ellipse cx="964.32" cy="516.25" rx="12.74" ry="12.74" style="fill: rgb(166,206,227); fill-opacity: 1.0" /><ellipse cx="930.98" cy="340.09" rx="16.13" ry="16.13" style="fill: rgb(255,255,255); fill-opacity: 1.0" /><ellipse cx="930.98" cy="340.09" rx="16.13" ry="16.13" style="stroke-width: 0.5;stroke: rgb(0,0,0);stroke-opacity: 1.0;stroke-linecap: square;; fill: none" /><g style="fill: rgb(227,26,28); fill-opacity: 1.0; stroke: none" ><path d="M 947.12 340.09 C 947.12 332.4 941.68 325.77 934.13 324.27 C 926.58 322.77 919.02 326.81 916.08 333.92 L 930.98 340.09 Z "/></g><g style="fill: rgb(178,223,138); fill-opacity: 1.0; stroke: none" ><path d="M 916.08 333.92 C 912.67 342.15 916.58 351.59 924.81 355 L 930.98 340.09 Z "/></g><g style="fill: rgb(51,160,44); fill-opacity: 1.0; stroke: none" ><path d="M 924.81 355 C 930.84 357.5 937.78 356.12 942.39 351.5 L 930.98 340.09 Z "/></g><g style="fill: rgb(51,160,44); fill-opacity: 1.0; stroke: none" ><path d="M 942.39 351.5 C 945.42 348.48 947.12 344.37 947.12 340.09 L 930.98 340.09 Z "/></g><ellipse cx="319.58" cy="912.45" rx="15.16" ry="15.16" style="fill: rgb(255,255,255); fill-opacity: 1.0" /><ellipse cx="319.58" cy="912.45" rx="15.16" ry="15.16" style="stroke-width: 0.5;stroke: rgb(0,0,0);stroke-opacity: 1.0;stroke-linecap: square;; fill: none" /><ellipse cx="319.58" cy="912.45" rx="15.16" ry="15.16" style="fill: rgb(255,255,255); fill-opacity: 1.0" /><ellipse cx="1087.58" cy="547.75" rx="13.71" ry="13.71" style="fill: rgb(255,255,255); fill-opacity: 1.0" /><ellipse cx="1087.58" cy="547.75" rx="13.71" ry="13.71" style="stroke-width: 0.5;stroke: rgb(0,0,0);stroke-opacity: 1.0;stroke-linecap: square;; fill: none" /><ellipse cx="1087.58" cy="547.75" rx="13.71" ry="13.71" style="fill: rgb(255,127,0); fill-opacity: 1.0" /><ellipse cx="1128.16" cy="216.18" rx="13.71" ry="13.71" style="fill: rgb(255,255,255); fill-opacity: 1.0" /><ellipse cx="1128.16" cy="216.18" rx="13.71" ry="13.71" style="stroke-width: 0.5;stroke: rgb(0,0,0);stroke-opacity: 1.0;stroke-linecap: square;; fill: none" /><ellipse cx="1128.16" cy="216.18" rx="13.71" ry="13.71" style="fill: rgb(227,26,28); fill-opacity: 1.0" /><ellipse cx="1206.67" cy="354.46" rx="12.98" ry="12.98" style="fill: rgb(255,255,255); fill-opacity: 1.0" /><ellipse cx="1206.67" cy="354.46" rx="12.98" ry="12.98" style="stroke-width: 0.5;stroke: rgb(0,0,0);stroke-opacity: 1.0;stroke-linecap: square;; fill: none" /><g style="fill: rgb(251,154,153); fill-opacity: 1.0; stroke: none" ><path d="M 1219.66 354.46 C 1219.66 349.82 1217.18 345.53 1213.16 343.21 C 1209.15 340.89 1204.2 340.89 1200.18 343.21 L 1206.67 354.46 Z "/></g><g style="fill: rgb(227,26,28); fill-opacity: 1.0; stroke: none" ><path d="M 1200.18 343.21 C 1194.72 346.36 1192.32 352.98 1194.47 358.9 C 1196.63 364.82 1202.72 368.34 1208.93 367.24 C 1215.13 366.15 1219.66 360.76 1219.66 354.46 L 1206.67 354.46 Z "/></g><ellipse cx="963.43" cy="170" rx="13.47" ry="13.47" style="fill: rgb(255,255,255); fill-opacity: 1.0" /><ellipse cx="963.43" cy="170" rx="13.47" ry="13.47" style="stroke-width: 0.5;stroke: rgb(0,0,0);stroke-opacity: 1.0;stroke-linecap: square;; fill: none" /><ellipse cx="963.43" cy="170" rx="13.47" ry="13.47" style="fill: rgb(31,120,180); fill-opacity: 1.0" /><ellipse cx="1145.83" cy="309.33" rx="17.83" ry="17.83" style="fill: rgb(255,255,255); fill-opacity: 1.0" /><ellipse cx="1145.83" cy="309.33" rx="17.83" ry="17.83" style="stroke-width: 0.5;stroke: rgb(0,0,0);stroke-opacity: 1.0;stroke-linecap: square;; fill: none" /><g style="fill: rgb(255,127,0); fill-opacity: 1.0; stroke: none" ><path d="M 1163.66 309.33 C 1163.66 304.39 1161.61 299.67 1158 296.3 C 1154.39 292.92 1149.54 291.2 1144.62 291.54 L 1145.83 309.33 Z "/></g><g style="fill: rgb(202,178,214); fill-opacity: 1.0; stroke: none" ><path d="M 1144.62 291.54 C 1134.95 292.2 1127.58 300.46 1128.02 310.14 C 1128.46 319.82 1136.55 327.37 1146.24 327.15 C 1155.92 326.93 1163.66 319.01 1163.66 309.33 L 1145.83 309.33 Z "/></g><ellipse cx="1217.56" cy="487.36" rx="12.5" ry="12.5" style="fill: rgb(255,255,255); fill-opacity: 1.0" /><ellipse cx="1217.56" cy="487.36" rx="12.5" ry="12.5" style="stroke-width: 0.5;stroke: rgb(0,0,0);stroke-opacity: 1.0;stroke-linecap: square;; fill: none" /><ellipse cx="1217.56" cy="487.36" rx="12.5" ry="12.5" style="fill: rgb(227,26,28); fill-opacity: 1.0" /><ellipse cx="994.01" cy="359.07" rx="12.74" ry="12.74" style="fill: rgb(255,255,255); fill-opacity: 1.0" /><ellipse cx="994.01" cy="359.07" rx="12.74" ry="12.74" style="stroke-width: 0.5;stroke: rgb(0,0,0);stroke-opacity: 1.0;stroke-linecap: square;; fill: none" /><ellipse cx="994.01" cy="359.07" rx="12.74" ry="12.74" style="fill: rgb(51,160,44); fill-opacity: 1.0" /><ellipse cx="1232.6" cy="383.68" rx="12.5" ry="12.5" style="fill: rgb(255,255,255); fill-opacity: 1.0" /><ellipse cx="1232.6" cy="383.68" rx="12.5" ry="12.5" style="stroke-width: 0.5;stroke: rgb(0,0,0);stroke-opacity: 1.0;stroke-linecap: square;; fill: none" /><ellipse cx="1232.6" cy="383.68" rx="12.5" ry="12.5" style="fill: rgb(255,127,0); fill-opacity: 1.0" /><ellipse cx="294.5" cy="997.97" rx="12.98" ry="12.98" style="fill: rgb(255,255,255); fill-opacity: 1.0" /><ellipse cx="294.5" cy="997.97" rx="12.98" ry="12.98" style="stroke-width: 0.5;stroke: rgb(0,0,0);stroke-opacity: 1.0;stroke-linecap: square;; fill: none" /><ellipse cx="294.5" cy="997.97" rx="12.98" ry="12.98" style="fill: rgb(255,255,255); fill-opacity: 1.0" /><ellipse cx="1131.01" cy="548.11" rx="12.74" ry="12.74" style="fill: rgb(255,255,255); fill-opacity: 1.0" /><ellipse cx="1131.01" cy="548.11" rx="12.74" ry="12.74" style="stroke-width: 0.5;stroke: rgb(0,0,0);stroke-opacity: 1.0;stroke-linecap: square;; fill: none" /><ellipse cx="1131.01" cy="548.11" rx="12.74" ry="12.74" style="fill: rgb(166,206,227); fill-opacity: 1.0" /><ellipse cx="329.58" cy="1072" rx="12.5" ry="12.5" style="fill: rgb(255,255,255); fill-opacity: 1.0" /><ellipse cx="329.58" cy="1072" rx="12.5" ry="12.5" style="stroke-width: 0.5;stroke: rgb(0,0,0);stroke-opacity: 1.0;stroke-linecap: square;; fill: none" /><ellipse cx="329.58" cy="1072" rx="12.5" ry="12.5" style="fill: rgb(255,255,255); fill-opacity: 1.0" /><ellipse cx="249.14" cy="961.43" rx="12.5" ry="12.5" style="fill: rgb(255,255,255); fill-opacity: 1.0" /><ellipse cx="249.14" cy="961.43" rx="12.5" ry="12.5" style="stroke-width: 0.5;stroke: rgb(0,0,0);stroke-opacity: 1.0;stroke-linecap: square;; fill: none" /><ellipse cx="249.14" cy="961.43" rx="12.5" ry="12.5" style="fill: rgb(255,255,255); fill-opacity: 1.0" /><ellipse cx="1050.13" cy="325.17" rx="12.74" ry="12.74" style="fill: rgb(255,255,255); fill-opacity: 1.0" /><ellipse cx="1050.13" cy="325.17" rx="12.74" ry="12.74" style="stroke-width: 0.5;stroke: rgb(0,0,0);stroke-opacity: 1.0;stroke-linecap: square;; fill: none" /><ellipse cx="1050.13" cy="325.17" rx="12.74" ry="12.74" style="fill: rgb(178,223,138); fill-opacity: 1.0" /><ellipse cx="1168.16" cy="535.45" rx="12.5" ry="12.5" style="fill: rgb(255,255,255); fill-opacity: 1.0" /><ellipse cx="1168.16" cy="535.45" rx="12.5" ry="12.5" style="stroke-width: 0.5;stroke: rgb(0,0,0);stroke-opacity: 1.0;stroke-linecap: square;; fill: none" /><ellipse cx="1168.16" cy="535.45" rx="12.5" ry="12.5" style="fill: rgb(178,223,138); fill-opacity: 1.0" /><ellipse cx="1229.5" cy="454.84" rx="12.74" ry="12.74" style="fill: rgb(255,255,255); fill-opacity: 1.0" /><ellipse cx="1229.5" cy="454.84" rx="12.74" ry="12.74" style="stroke-width: 0.5;stroke: rgb(0,0,0);stroke-opacity: 1.0;stroke-linecap: square;; fill: none" /><ellipse cx="1229.5" cy="454.84" rx="12.74" ry="12.74" style="fill: rgb(251,154,153); fill-opacity: 1.0" /><ellipse cx="420.62" cy="935.76" rx="12.5" ry="12.5" style="fill: rgb(255,255,255); fill-opacity: 1.0" /><ellipse cx="420.62" cy="935.76" rx="12.5" ry="12.5" style="stroke-width: 0.5;stroke: rgb(0,0,0);stroke-opacity: 1.0;stroke-linecap: square;; fill: none" /><ellipse cx="420.62" cy="935.76" rx="12.5" ry="12.5" style="fill: rgb(255,255,255); fill-opacity: 1.0" /><ellipse cx="320.71" cy="830.39" rx="12.74" ry="12.74" style="fill: rgb(255,255,255); fill-opacity: 1.0" /><ellipse cx="320.71" cy="830.39" rx="12.74" ry="12.74" style="stroke-width: 0.5;stroke: rgb(0,0,0);stroke-opacity: 1.0;stroke-linecap: square;; fill: none" /><ellipse cx="320.71" cy="830.39" rx="12.74" ry="12.74" style="fill: rgb(255,255,255); fill-opacity: 1.0" /><ellipse cx="170" cy="816.33" rx="12.5" ry="12.5" style="fill: rgb(255,255,255); fill-opacity: 1.0" /><ellipse cx="170" cy="816.33" rx="12.5" ry="12.5" style="stroke-width: 0.5;stroke: rgb(0,0,0);stroke-opacity: 1.0;stroke-linecap: square;; fill: none" /><ellipse cx="170" cy="816.33" rx="12.5" ry="12.5" style="fill: rgb(255,255,255); fill-opacity: 1.0" /><ellipse cx="401.65" cy="852.86" rx="12.5" ry="12.5" style="fill: rgb(255,255,255); fill-opacity: 1.0" /><ellipse cx="401.65" cy="852.86" rx="12.5" ry="12.5" style="stroke-width: 0.5;stroke: rgb(0,0,0);stroke-opacity: 1.0;stroke-linecap: square;; fill: none" /><ellipse cx="401.65" cy="852.86" rx="12.5" ry="12.5" style="fill: rgb(255,255,255); fill-opacity: 1.0" /><ellipse cx="1195.6" cy="515.41" rx="12.5" ry="12.5" style="fill: rgb(255,255,255); fill-opacity: 1.0" /><ellipse cx="1195.6" cy="515.41" rx="12.5" ry="12.5" style="stroke-width: 0.5;stroke: rgb(0,0,0);stroke-opacity: 1.0;stroke-linecap: square;; fill: none" /><ellipse cx="1195.6" cy="515.41" rx="12.5" ry="12.5" style="fill: rgb(51,160,44); fill-opacity: 1.0" /><ellipse cx="429.21" cy="527.72" rx="12.5" ry="12.5" style="fill: rgb(255,255,255); fill-opacity: 1.0" /><ellipse cx="429.21" cy="527.72" rx="12.5" ry="12.5" style="stroke-width: 0.5;stroke: rgb(0,0,0);stroke-opacity: 1.0;stroke-linecap: square;; fill: none" /><ellipse cx="429.21" cy="527.72" rx="12.5" ry="12.5" style="fill: rgb(255,255,255); fill-opacity: 1.0" /><ellipse cx="923" cy="828.47" rx="12.5" ry="12.5" style="fill: rgb(255,255,255); fill-opacity: 1.0" /><ellipse cx="923" cy="828.47" rx="12.5" ry="12.5" style="stroke-width: 0.5;stroke: rgb(0,0,0);stroke-opacity: 1.0;stroke-linecap: square;; fill: none" /><ellipse cx="923" cy="828.47" rx="12.5" ry="12.5" style="fill: rgb(255,255,255); fill-opacity: 1.0" /><ellipse cx="355.72" cy="784.92" rx="12.5" ry="12.5" style="fill: rgb(255,255,255); fill-opacity: 1.0" /><ellipse cx="355.72" cy="784.92" rx="12.5" ry="12.5" style="stroke-width: 0.5;stroke: rgb(0,0,0);stroke-opacity: 1.0;stroke-linecap: square;; fill: none" /><ellipse cx="355.72" cy="784.92" rx="12.5" ry="12.5" style="fill: rgb(255,255,255); fill-opacity: 1.0" /><ellipse cx="1050.73" cy="867.79" rx="12.5" ry="12.5" style="fill: rgb(255,255,255); fill-opacity: 1.0" /><ellipse cx="1050.73" cy="867.79" rx="12.5" ry="12.5" style="stroke-width: 0.5;stroke: rgb(0,0,0);stroke-opacity: 1.0;stroke-linecap: square;; fill: none" /><ellipse cx="1050.73" cy="867.79" rx="12.5" ry="12.5" style="fill: rgb(255,255,255); fill-opacity: 1.0" /><ellipse cx="1002.38" cy="801.01" rx="12.5" ry="12.5" style="fill: rgb(255,255,255); fill-opacity: 1.0" /><ellipse cx="1002.38" cy="801.01" rx="12.5" ry="12.5" style="stroke-width: 0.5;stroke: rgb(0,0,0);stroke-opacity: 1.0;stroke-linecap: square;; fill: none" /><ellipse cx="1002.38" cy="801.01" rx="12.5" ry="12.5" style="fill: rgb(255,255,255); fill-opacity: 1.0" /><ellipse cx="919.6" cy="593.53" rx="12.5" ry="12.5" style="fill: rgb(255,255,255); fill-opacity: 1.0" /><ellipse cx="919.6" cy="593.53" rx="12.5" ry="12.5" style="stroke-width: 0.5;stroke: rgb(0,0,0);stroke-opacity: 1.0;stroke-linecap: square;; fill: none" /><ellipse cx="919.6" cy="593.53" rx="12.5" ry="12.5" style="fill: rgb(255,255,255); fill-opacity: 1.0" /><ellipse cx="540.11" cy="647.02" rx="12.5" ry="12.5" style="fill: rgb(255,255,255); fill-opacity: 1.0" /><ellipse cx="540.11" cy="647.02" rx="12.5" ry="12.5" style="stroke-width: 0.5;stroke: rgb(0,0,0);stroke-opacity: 1.0;stroke-linecap: square;; fill: none" /><ellipse cx="540.11" cy="647.02" rx="12.5" ry="12.5" style="fill: rgb(255,255,255); fill-opacity: 1.0" /><ellipse cx="383.73" cy="633" rx="12.5" ry="12.5" style="fill: rgb(255,255,255); fill-opacity: 1.0" /><ellipse cx="383.73" cy="633" rx="12.5" ry="12.5" style="stroke-width: 0.5;stroke: rgb(0,0,0);stroke-opacity: 1.0;stroke-linecap: square;; fill: none" /><ellipse cx="383.73" cy="633" rx="12.5" ry="12.5" style="fill: rgb(255,255,255); fill-opacity: 1.0" /><ellipse cx="579.67" cy="805.56" rx="12.5" ry="12.5" style="fill: rgb(255,255,255); fill-opacity: 1.0" /><ellipse cx="579.67" cy="805.56" rx="12.5" ry="12.5" style="stroke-width: 0.5;stroke: rgb(0,0,0);stroke-opacity: 1.0;stroke-linecap: square;; fill: none" /><ellipse cx="579.67" cy="805.56" rx="12.5" ry="12.5" style="fill: rgb(255,255,255); fill-opacity: 1.0" /><ellipse cx="537.53" cy="413.29" rx="12.5" ry="12.5" style="fill: rgb(255,255,255); fill-opacity: 1.0" /><ellipse cx="537.53" cy="413.29" rx="12.5" ry="12.5" style="stroke-width: 0.5;stroke: rgb(0,0,0);stroke-opacity: 1.0;stroke-linecap: square;; fill: none" /><ellipse cx="537.53" cy="413.29" rx="12.5" ry="12.5" style="fill: rgb(255,255,255); fill-opacity: 1.0" /><ellipse cx="560.07" cy="492.56" rx="12.5" ry="12.5" style="fill: rgb(255,255,255); fill-opacity: 1.0" /><ellipse cx="560.07" cy="492.56" rx="12.5" ry="12.5" style="stroke-width: 0.5;stroke: rgb(0,0,0);stroke-opacity: 1.0;stroke-linecap: square;; fill: none" /><ellipse cx="560.07" cy="492.56" rx="12.5" ry="12.5" style="fill: rgb(255,255,255); fill-opacity: 1.0" /><ellipse cx="396.78" cy="728.61" rx="12.5" ry="12.5" style="fill: rgb(255,255,255); fill-opacity: 1.0" /><ellipse cx="396.78" cy="728.61" rx="12.5" ry="12.5" style="stroke-width: 0.5;stroke: rgb(0,0,0);stroke-opacity: 1.0;stroke-linecap: square;; fill: none" /><ellipse cx="396.78" cy="728.61" rx="12.5" ry="12.5" style="fill: rgb(255,255,255); fill-opacity: 1.0" /><ellipse cx="727.02" cy="848.84" rx="12.5" ry="12.5" style="fill: rgb(255,255,255); fill-opacity: 1.0" /><ellipse cx="727.02" cy="848.84" rx="12.5" ry="12.5" style="stroke-width: 0.5;stroke: rgb(0,0,0);stroke-opacity: 1.0;stroke-linecap: square;; fill: none" /><ellipse cx="727.02" cy="848.84" rx="12.5" ry="12.5" style="fill: rgb(255,255,255); fill-opacity: 1.0" /><ellipse cx="721.66" cy="766.88" rx="12.5" ry="12.5" style="fill: rgb(255,255,255); fill-opacity: 1.0" /><ellipse cx="721.66" cy="766.88" rx="12.5" ry="12.5" style="stroke-width: 0.5;stroke: rgb(0,0,0);stroke-opacity: 1.0;stroke-linecap: square;; fill: none" /><ellipse cx="721.66" cy="766.88" rx="12.5" ry="12.5" style="fill: rgb(255,255,255); fill-opacity: 1.0" /><ellipse cx="838.87" cy="762.83" rx="12.5" ry="12.5" style="fill: rgb(255,255,255); fill-opacity: 1.0" /><ellipse cx="838.87" cy="762.83" rx="12.5" ry="12.5" style="stroke-width: 0.5;stroke: rgb(0,0,0);stroke-opacity: 1.0;stroke-linecap: square;; fill: none" /><ellipse cx="838.87" cy="762.83" rx="12.5" ry="12.5" style="fill: rgb(255,255,255); fill-opacity: 1.0" /><ellipse cx="1486.6" cy="296.97" rx="12.5" ry="12.5" style="fill: rgb(255,255,255); fill-opacity: 1.0" /><ellipse cx="1486.6" cy="296.97" rx="12.5" ry="12.5" style="stroke-width: 0.5;stroke: rgb(0,0,0);stroke-opacity: 1.0;stroke-linecap: square;; fill: none" /><ellipse cx="1486.6" cy="296.97" rx="12.5" ry="12.5" style="fill: rgb(255,255,255); fill-opacity: 1.0" /><ellipse cx="1563.72" cy="268.58" rx="12.5" ry="12.5" style="fill: rgb(255,255,255); fill-opacity: 1.0" /><ellipse cx="1563.72" cy="268.58" rx="12.5" ry="12.5" style="stroke-width: 0.5;stroke: rgb(0,0,0);stroke-opacity: 1.0;stroke-linecap: square;; fill: none" /><ellipse cx="1563.72" cy="268.58" rx="12.5" ry="12.5" style="fill: rgb(255,255,255); fill-opacity: 1.0" /><ellipse cx="232.71" cy="910.84" rx="12.5" ry="12.5" style="fill: rgb(255,255,255); fill-opacity: 1.0" /><ellipse cx="232.71" cy="910.84" rx="12.5" ry="12.5" style="stroke-width: 0.5;stroke: rgb(0,0,0);stroke-opacity: 1.0;stroke-linecap: square;; fill: none" /><ellipse cx="232.71" cy="910.84" rx="12.5" ry="12.5" style="fill: rgb(255,255,255); fill-opacity: 1.0" /><ellipse cx="963.76" cy="435.29" rx="12.5" ry="12.5" style="fill: rgb(255,255,255); fill-opacity: 1.0" /><ellipse cx="963.76" cy="435.29" rx="12.5" ry="12.5" style="stroke-width: 0.5;stroke: rgb(0,0,0);stroke-opacity: 1.0;stroke-linecap: square;; fill: none" /><ellipse cx="963.76" cy="435.29" rx="12.5" ry="12.5" style="fill: rgb(255,255,255); fill-opacity: 1.0" /><ellipse cx="931.99" cy="247.46" rx="12.5" ry="12.5" style="fill: rgb(255,255,255); fill-opacity: 1.0" /><ellipse cx="931.99" cy="247.46" rx="12.5" ry="12.5" style="stroke-width: 0.5;stroke: rgb(0,0,0);stroke-opacity: 1.0;stroke-linecap: square;; fill: none" /><ellipse cx="931.99" cy="247.46" rx="12.5" ry="12.5" style="fill: rgb(255,255,255); fill-opacity: 1.0" /><ellipse cx="467.34" cy="773.6" rx="12.5" ry="12.5" style="fill: rgb(255,255,255); fill-opacity: 1.0" /><ellipse cx="467.34" cy="773.6" rx="12.5" ry="12.5" style="stroke-width: 0.5;stroke: rgb(0,0,0);stroke-opacity: 1.0;stroke-linecap: square;; fill: none" /><ellipse cx="467.34" cy="773.6" rx="12.5" ry="12.5" style="fill: rgb(255,255,255); fill-opacity: 1.0" /><ellipse cx="554.18" cy="727.58" rx="12.5" ry="12.5" style="fill: rgb(255,255,255); fill-opacity: 1.0" /><ellipse cx="554.18" cy="727.58" rx="12.5" ry="12.5" style="stroke-width: 0.5;stroke: rgb(0,0,0);stroke-opacity: 1.0;stroke-linecap: square;; fill: none" /><ellipse cx="554.18" cy="727.58" rx="12.5" ry="12.5" style="fill: rgb(255,255,255); fill-opacity: 1.0" /><ellipse cx="454.97" cy="680.38" rx="12.5" ry="12.5" style="fill: rgb(255,255,255); fill-opacity: 1.0" /><ellipse cx="454.97" cy="680.38" rx="12.5" ry="12.5" style="stroke-width: 0.5;stroke: rgb(0,0,0);stroke-opacity: 1.0;stroke-linecap: square;; fill: none" /><ellipse cx="454.97" cy="680.38" rx="12.5" ry="12.5" style="fill: rgb(255,255,255); fill-opacity: 1.0" /><ellipse cx="482.08" cy="594.22" rx="12.5" ry="12.5" style="fill: rgb(255,255,255); fill-opacity: 1.0" /><ellipse cx="482.08" cy="594.22" rx="12.5" ry="12.5" style="stroke-width: 0.5;stroke: rgb(0,0,0);stroke-opacity: 1.0;stroke-linecap: square;; fill: none" /><ellipse cx="482.08" cy="594.22" rx="12.5" ry="12.5" style="fill: rgb(255,255,255); fill-opacity: 1.0" /><ellipse cx="569.39" cy="579.96" rx="12.5" ry="12.5" style="fill: rgb(255,255,255); fill-opacity: 1.0" /><ellipse cx="569.39" cy="579.96" rx="12.5" ry="12.5" style="stroke-width: 0.5;stroke: rgb(0,0,0);stroke-opacity: 1.0;stroke-linecap: square;; fill: none" /><ellipse cx="569.39" cy="579.96" rx="12.5" ry="12.5" style="fill: rgb(255,255,255); fill-opacity: 1.0" /><ellipse cx="624.01" cy="655.6" rx="12.5" ry="12.5" style="fill: rgb(255,255,255); fill-opacity: 1.0" /><ellipse cx="624.01" cy="655.6" rx="12.5" ry="12.5" style="stroke-width: 0.5;stroke: rgb(0,0,0);stroke-opacity: 1.0;stroke-linecap: square;; fill: none" /><ellipse cx="624.01" cy="655.6" rx="12.5" ry="12.5" style="fill: rgb(255,255,255); fill-opacity: 1.0" /><ellipse cx="931.9" cy="744.04" rx="12.5" ry="12.5" style="fill: rgb(255,255,255); fill-opacity: 1.0" /><ellipse cx="931.9" cy="744.04" rx="12.5" ry="12.5" style="stroke-width: 0.5;stroke: rgb(0,0,0);stroke-opacity: 1.0;stroke-linecap: square;; fill: none" /><ellipse cx="931.9" cy="744.04" rx="12.5" ry="12.5" style="fill: rgb(255,255,255); fill-opacity: 1.0" /><ellipse cx="886.23" cy="512.74" rx="12.5" ry="12.5" style="fill: rgb(255,255,255); fill-opacity: 1.0" /><ellipse cx="886.23" cy="512.74" rx="12.5" ry="12.5" style="stroke-width: 0.5;stroke: rgb(0,0,0);stroke-opacity: 1.0;stroke-linecap: square;; fill: none" /><ellipse cx="886.23" cy="512.74" rx="12.5" ry="12.5" style="fill: rgb(255,255,255); fill-opacity: 1.0" /><ellipse cx="818.81" cy="593.87" rx="12.5" ry="12.5" style="fill: rgb(255,255,255); fill-opacity: 1.0" /><ellipse cx="818.81" cy="593.87" rx="12.5" ry="12.5" style="stroke-width: 0.5;stroke: rgb(0,0,0);stroke-opacity: 1.0;stroke-linecap: square;; fill: none" /><ellipse cx="818.81" cy="593.87" rx="12.5" ry="12.5" style="fill: rgb(255,255,255); fill-opacity: 1.0" /><ellipse cx="865.68" cy="674.64" rx="12.5" ry="12.5" style="fill: rgb(255,255,255); fill-opacity: 1.0" /><ellipse cx="865.68" cy="674.64" rx="12.5" ry="12.5" style="stroke-width: 0.5;stroke: rgb(0,0,0);stroke-opacity: 1.0;stroke-linecap: square;; fill: none" /><ellipse cx="865.68" cy="674.64" rx="12.5" ry="12.5" style="fill: rgb(255,255,255); fill-opacity: 1.0" /><ellipse cx="725.87" cy="629.2" rx="12.5" ry="12.5" style="fill: rgb(255,255,255); fill-opacity: 1.0" /><ellipse cx="725.87" cy="629.2" rx="12.5" ry="12.5" style="stroke-width: 0.5;stroke: rgb(0,0,0);stroke-opacity: 1.0;stroke-linecap: square;; fill: none" /><ellipse cx="725.87" cy="629.2" rx="12.5" ry="12.5" style="fill: rgb(255,255,255); fill-opacity: 1.0" /><rect x="20" y="17" width="16" height="16" style="fill: rgb(166,206,227); fill-opacity: 1.0" /><g ><text x="40" y="30" style="fill: rgb(0,0,0); fill-opacity: 1.0; font-family: Times New Roman; font-size: 12px;" >Pop_01</text></g><rect x="20" y="37" width="16" height="16" style="fill: rgb(31,120,180); fill-opacity: 1.0" /><g ><text x="40" y="50" style="fill: rgb(0,0,0); fill-opacity: 1.0; font-family: Times New Roman; font-size: 12px;" >Pop_02</text></g><rect x="20" y="57" width="16" height="16" style="fill: rgb(178,223,138); fill-opacity: 1.0" /><g ><text x="40" y="70" style="fill: rgb(0,0,0); fill-opacity: 1.0; font-family: Times New Roman; font-size: 12px;" >Pop_03</text></g><rect x="20" y="77" width="16" height="16" style="fill: rgb(51,160,44); fill-opacity: 1.0" /><g ><text x="40" y="90" style="fill: rgb(0,0,0); fill-opacity: 1.0; font-family: Times New Roman; font-size: 12px;" >Pop_04</text></g><rect x="20" y="97" width="16" height="16" style="fill: rgb(251,154,153); fill-opacity: 1.0" /><g ><text x="40" y="110" style="fill: rgb(0,0,0); fill-opacity: 1.0; font-family: Times New Roman; font-size: 12px;" >Pop_05</text></g><rect x="20" y="117" width="16" height="16" style="fill: rgb(227,26,28); fill-opacity: 1.0" /><g ><text x="40" y="130" style="fill: rgb(0,0,0); fill-opacity: 1.0; font-family: Times New Roman; font-size: 12px;" >Pop_06</text></g><rect x="20" y="137" width="16" height="16" style="fill: rgb(253,191,111); fill-opacity: 1.0" /><g ><text x="40" y="150" style="fill: rgb(0,0,0); fill-opacity: 1.0; font-family: Times New Roman; font-size: 12px;" >Pop_07</text></g><rect x="20" y="157" width="16" height="16" style="fill: rgb(255,127,0); fill-opacity: 1.0" /><g ><text x="40" y="170" style="fill: rgb(0,0,0); fill-opacity: 1.0; font-family: Times New Roman; font-size: 12px;" >Pop_08</text></g><rect x="20" y="177" width="16" height="16" style="fill: rgb(202,178,214); fill-opacity: 1.0" /><g ><text x="40" y="190" style="fill: rgb(0,0,0); fill-opacity: 1.0; font-family: Times New Roman; font-size: 12px;" >Pop_09</text></g><rect x="20" y="197" width="16" height="16" style="fill: rgb(106,61,154); fill-opacity: 1.0" /><g ><text x="40" y="210" style="fill: rgb(0,0,0); fill-opacity: 1.0; font-family: Times New Roman; font-size: 12px;" >Pop_10</text></g><rect x="20" y="217" width="16" height="16" style="fill: rgb(166,206,227); fill-opacity: 1.0" /><g ><text x="40" y="230" style="fill: rgb(0,0,0); fill-opacity: 1.0; font-family: Times New Roman; font-size: 12px;" >Pop_11</text></g><rect x="20" y="237" width="16" height="16" style="fill: rgb(31,120,180); fill-opacity: 1.0" /><g ><text x="40" y="250" style="fill: rgb(0,0,0); fill-opacity: 1.0; font-family: Times New Roman; font-size: 12px;" >Pop_12</text></g><rect x="20" y="257" width="16" height="16" style="fill: rgb(178,223,138); fill-opacity: 1.0" /><g ><text x="40" y="270" style="fill: rgb(0,0,0); fill-opacity: 1.0; font-family: Times New Roman; font-size: 12px;" >Pop_13</text></g><rect x="20" y="277" width="16" height="16" style="fill: rgb(51,160,44); fill-opacity: 1.0" /><g ><text x="40" y="290" style="fill: rgb(0,0,0); fill-opacity: 1.0; font-family: Times New Roman; font-size: 12px;" >Pop_14</text></g><rect x="20" y="297" width="16" height="16" style="fill: rgb(251,154,153); fill-opacity: 1.0" /><g ><text x="40" y="310" style="fill: rgb(0,0,0); fill-opacity: 1.0; font-family: Times New Roman; font-size: 12px;" >Pop_15</text></g><rect x="20" y="317" width="16" height="16" style="fill: rgb(227,26,28); fill-opacity: 1.0" /><g ><text x="40" y="330" style="fill: rgb(0,0,0); fill-opacity: 1.0; font-family: Times New Roman; font-size: 12px;" >Pop_16</text></g><rect x="20" y="337" width="16" height="16" style="fill: rgb(253,191,111); fill-opacity: 1.0" /><g ><text x="40" y="350" style="fill: rgb(0,0,0); fill-opacity: 1.0; font-family: Times New Roman; font-size: 12px;" >Pop_17</text></g></svg>
