<?xml version="1.0"?>
<!DOCTYPE svg PUBLIC "-//W3C//DTD SVG 1.0//EN" "http://www.w3.org/TR/2001/REC-SVG-20010904/DTD/svg10.dtd">
<svg xmlns="http://www.w3.org/2000/svg" xmlns:xlink="http://www.w3.org/1999/xlink" xmlns:jfreesvg="http://www.jfree.org/jfreesvg/svg" width="1825" height="1242" text-rendering="auto" shape-rendering="auto">
<defs></defs>
<line x1="1164.2" y1="248.01" x2="1172.56" y2="385.42" style="stroke-width: 0.5;stroke: rgb(0,0,0);stroke-opacity: 1.0;stroke-linecap: square;" /><line x1="1172.56" y1="385.42" x2="1250.8" y2="277.96" style="stroke-width: 0.5;stroke: rgb(0,0,0);stroke-opacity: 1.0;stroke-linecap: square;" /><line x1="1172.56" y1="385.42" x2="1302.79" y2="377.3" style="stroke-width: 0.5;stroke: rgb(0,0,0);stroke-opacity: 1.0;stroke-linecap: square;" /><line x1="841.02" y1="398.17" x2="920.99" y2="398.17" style="stroke-width: 0.5;stroke: rgb(0,0,0);stroke-opacity: 1.0;stroke-linecap: square;" /><line x1="1172.56" y1="385.42" x2="1094.64" y2="485.66" style="stroke-width: 0.5;stroke: rgb(0,0,0);stroke-opacity: 1.0;stroke-linecap: square;" /><line x1="878.34" y1="317.13" x2="962.57" y2="316.07" style="stroke-width: 0.5;stroke: rgb(0,0,0);stroke-opacity: 1.0;stroke-linecap: square;" /><line x1="373.59" y1="988.03" x2="329.48" y2="901.88" style="stroke-width: 0.5;stroke: rgb(0,0,0);stroke-opacity: 1.0;stroke-linecap: square;" /><line x1="1172.56" y1="385.42" x2="1148.32" y2="513.04" style="stroke-width: 0.5;stroke: rgb(0,0,0);stroke-opacity: 1.0;stroke-linecap: square;" /><line x1="1164.2" y1="248.01" x2="1160.88" y2="170" style="stroke-width: 0.5;stroke: rgb(0,0,0);stroke-opacity: 1.0;stroke-linecap: square;" /><line x1="1172.56" y1="385.42" x2="1275.29" y2="306.96" style="stroke-width: 0.5;stroke: rgb(0,0,0);stroke-opacity: 1.0;stroke-linecap: square;" /><line x1="1172.56" y1="385.42" x2="1302.94" y2="338.12" style="stroke-width: 0.5;stroke: rgb(0,0,0);stroke-opacity: 1.0;stroke-linecap: square;" /><line x1="329.48" y1="901.88" x2="302.74" y2="993.07" style="stroke-width: 0.5;stroke: rgb(0,0,0);stroke-opacity: 1.0;stroke-linecap: square;" /><line x1="1172.56" y1="385.42" x2="1194.63" y2="513.43" style="stroke-width: 0.5;stroke: rgb(0,0,0);stroke-opacity: 1.0;stroke-linecap: square;" /><line x1="373.59" y1="988.03" x2="340.14" y2="1072" style="stroke-width: 0.5;stroke: rgb(0,0,0);stroke-opacity: 1.0;stroke-linecap: square;" /><line x1="302.74" y1="993.07" x2="340.14" y2="1072" style="stroke-width: 0.5;stroke: rgb(0,0,0);stroke-opacity: 1.0;stroke-linecap: square;" /><line x1="1172.56" y1="385.42" x2="1108.38" y2="275.73" style="stroke-width: 0.5;stroke: rgb(0,0,0);stroke-opacity: 1.0;stroke-linecap: square;" /><line x1="1172.56" y1="385.42" x2="1234.23" y2="499.93" style="stroke-width: 0.5;stroke: rgb(0,0,0);stroke-opacity: 1.0;stroke-linecap: square;" /><line x1="1172.56" y1="385.42" x2="1299.63" y2="413.99" style="stroke-width: 0.5;stroke: rgb(0,0,0);stroke-opacity: 1.0;stroke-linecap: square;" /><line x1="373.59" y1="988.03" x2="437.21" y2="926.74" style="stroke-width: 0.5;stroke: rgb(0,0,0);stroke-opacity: 1.0;stroke-linecap: square;" /><line x1="249.4" y1="839.63" x2="330.69" y2="814.39" style="stroke-width: 0.5;stroke: rgb(0,0,0);stroke-opacity: 1.0;stroke-linecap: square;" /><line x1="249.4" y1="839.63" x2="170" y2="799.41" style="stroke-width: 0.5;stroke: rgb(0,0,0);stroke-opacity: 1.0;stroke-linecap: square;" /><line x1="329.48" y1="901.88" x2="416.98" y2="838.35" style="stroke-width: 0.5;stroke: rgb(0,0,0);stroke-opacity: 1.0;stroke-linecap: square;" /><line x1="437.21" y1="926.74" x2="416.98" y2="838.35" style="stroke-width: 0.5;stroke: rgb(0,0,0);stroke-opacity: 1.0;stroke-linecap: square;" /><line x1="1172.56" y1="385.42" x2="1263.49" y2="478.57" style="stroke-width: 0.5;stroke: rgb(0,0,0);stroke-opacity: 1.0;stroke-linecap: square;" /><line x1="416.98" y1="838.35" x2="368.02" y2="765.92" style="stroke-width: 0.5;stroke: rgb(0,0,0);stroke-opacity: 1.0;stroke-linecap: square;" /><line x1="1109.02" y1="854.27" x2="1057.48" y2="783.07" style="stroke-width: 0.5;stroke: rgb(0,0,0);stroke-opacity: 1.0;stroke-linecap: square;" /><line x1="561.86" y1="369.69" x2="585.89" y2="454.2" style="stroke-width: 0.5;stroke: rgb(0,0,0);stroke-opacity: 1.0;stroke-linecap: square;" /><line x1="763.9" y1="834.07" x2="758.18" y2="746.69" style="stroke-width: 0.5;stroke: rgb(0,0,0);stroke-opacity: 1.0;stroke-linecap: square;" /><line x1="1172.56" y1="385.42" x2="1016.31" y2="393.15" style="stroke-width: 0.5;stroke: rgb(0,0,0);stroke-opacity: 1.0;stroke-linecap: square;" /><line x1="1016.31" y1="393.15" x2="1016.94" y2="471.73" style="stroke-width: 0.5;stroke: rgb(0,0,0);stroke-opacity: 1.0;stroke-linecap: square;" /><line x1="924.49" y1="180" x2="962.57" y2="238.24" style="stroke-width: 0.5;stroke: rgb(0,0,0);stroke-opacity: 1.0;stroke-linecap: square;" /><line x1="962.57" y1="238.24" x2="962.57" y2="316.07" style="stroke-width: 0.5;stroke: rgb(0,0,0);stroke-opacity: 1.0;stroke-linecap: square;" /><line x1="962.57" y1="238.24" x2="1014.25" y2="176.02" style="stroke-width: 0.5;stroke: rgb(0,0,0);stroke-opacity: 1.0;stroke-linecap: square;" /><line x1="416.98" y1="838.35" x2="487.02" y2="753.85" style="stroke-width: 0.5;stroke: rgb(0,0,0);stroke-opacity: 1.0;stroke-linecap: square;" /><line x1="487.02" y1="753.85" x2="579.62" y2="704.78" style="stroke-width: 0.5;stroke: rgb(0,0,0);stroke-opacity: 1.0;stroke-linecap: square;" /><line x1="579.62" y1="704.78" x2="606.78" y2="787.92" style="stroke-width: 0.5;stroke: rgb(0,0,0);stroke-opacity: 1.0;stroke-linecap: square;" /><line x1="502.74" y1="562.6" x2="595.83" y2="547.39" style="stroke-width: 0.5;stroke: rgb(0,0,0);stroke-opacity: 1.0;stroke-linecap: square;" /><line x1="249.4" y1="839.63" x2="329.48" y2="901.88" style="stroke-width: 0.5;stroke: rgb(0,0,0);stroke-opacity: 1.0;stroke-linecap: square;" /><line x1="330.69" y1="814.39" x2="416.98" y2="838.35" style="stroke-width: 0.5;stroke: rgb(0,0,0);stroke-opacity: 1.0;stroke-linecap: square;" /><line x1="1172.56" y1="385.42" x2="1210.43" y2="258.84" style="stroke-width: 0.5;stroke: rgb(0,0,0);stroke-opacity: 1.0;stroke-linecap: square;" /><line x1="1172.56" y1="385.42" x2="1286.9" y2="448.66" style="stroke-width: 0.5;stroke: rgb(0,0,0);stroke-opacity: 1.0;stroke-linecap: square;" /><line x1="329.48" y1="901.88" x2="254.38" y2="954.12" style="stroke-width: 0.5;stroke: rgb(0,0,0);stroke-opacity: 1.0;stroke-linecap: square;" /><line x1="1573.75" y1="245.67" x2="1655.98" y2="215.4" style="stroke-width: 0.5;stroke: rgb(0,0,0);stroke-opacity: 1.0;stroke-linecap: square;" /><line x1="920.99" y1="398.17" x2="1016.31" y2="393.15" style="stroke-width: 0.5;stroke: rgb(0,0,0);stroke-opacity: 1.0;stroke-linecap: square;" /><line x1="329.48" y1="901.88" x2="236.86" y2="900.17" style="stroke-width: 0.5;stroke: rgb(0,0,0);stroke-opacity: 1.0;stroke-linecap: square;" /><line x1="962.57" y1="316.07" x2="1016.31" y2="393.15" style="stroke-width: 0.5;stroke: rgb(0,0,0);stroke-opacity: 1.0;stroke-linecap: square;" /><line x1="1048.55" y1="311.88" x2="1016.31" y2="393.15" style="stroke-width: 0.5;stroke: rgb(0,0,0);stroke-opacity: 1.0;stroke-linecap: square;" /><line x1="564.61" y1="618.89" x2="579.62" y2="704.78" style="stroke-width: 0.5;stroke: rgb(0,0,0);stroke-opacity: 1.0;stroke-linecap: square;" /><line x1="411.79" y1="705.88" x2="487.02" y2="753.85" style="stroke-width: 0.5;stroke: rgb(0,0,0);stroke-opacity: 1.0;stroke-linecap: square;" /><line x1="487.02" y1="753.85" x2="473.83" y2="654.46" style="stroke-width: 0.5;stroke: rgb(0,0,0);stroke-opacity: 1.0;stroke-linecap: square;" /><line x1="397.87" y1="603.94" x2="473.83" y2="654.46" style="stroke-width: 0.5;stroke: rgb(0,0,0);stroke-opacity: 1.0;stroke-linecap: square;" /><line x1="446.37" y1="491.69" x2="502.74" y2="562.6" style="stroke-width: 0.5;stroke: rgb(0,0,0);stroke-opacity: 1.0;stroke-linecap: square;" /><line x1="585.89" y1="454.2" x2="595.83" y2="547.39" style="stroke-width: 0.5;stroke: rgb(0,0,0);stroke-opacity: 1.0;stroke-linecap: square;" /><line x1="473.83" y1="654.46" x2="502.74" y2="562.6" style="stroke-width: 0.5;stroke: rgb(0,0,0);stroke-opacity: 1.0;stroke-linecap: square;" /><line x1="579.62" y1="704.78" x2="654.06" y2="628.03" style="stroke-width: 0.5;stroke: rgb(0,0,0);stroke-opacity: 1.0;stroke-linecap: square;" /><line x1="595.83" y1="547.39" x2="654.06" y2="628.03" style="stroke-width: 0.5;stroke: rgb(0,0,0);stroke-opacity: 1.0;stroke-linecap: square;" /><line x1="972.85" y1="812.35" x2="982.33" y2="722.33" style="stroke-width: 0.5;stroke: rgb(0,0,0);stroke-opacity: 1.0;stroke-linecap: square;" /><line x1="1057.48" y1="783.07" x2="982.33" y2="722.33" style="stroke-width: 0.5;stroke: rgb(0,0,0);stroke-opacity: 1.0;stroke-linecap: square;" /><line x1="1016.31" y1="393.15" x2="933.63" y2="475.72" style="stroke-width: 0.5;stroke: rgb(0,0,0);stroke-opacity: 1.0;stroke-linecap: square;" /><line x1="969.22" y1="561.86" x2="933.63" y2="475.72" style="stroke-width: 0.5;stroke: rgb(0,0,0);stroke-opacity: 1.0;stroke-linecap: square;" /><line x1="933.63" y1="475.72" x2="861.75" y2="562.22" style="stroke-width: 0.5;stroke: rgb(0,0,0);stroke-opacity: 1.0;stroke-linecap: square;" /><line x1="861.75" y1="562.22" x2="911.73" y2="648.34" style="stroke-width: 0.5;stroke: rgb(0,0,0);stroke-opacity: 1.0;stroke-linecap: square;" /><line x1="982.33" y1="722.33" x2="911.73" y2="648.34" style="stroke-width: 0.5;stroke: rgb(0,0,0);stroke-opacity: 1.0;stroke-linecap: square;" /><line x1="861.75" y1="562.22" x2="762.67" y2="599.89" style="stroke-width: 0.5;stroke: rgb(0,0,0);stroke-opacity: 1.0;stroke-linecap: square;" /><line x1="654.06" y1="628.03" x2="762.67" y2="599.89" style="stroke-width: 0.5;stroke: rgb(0,0,0);stroke-opacity: 1.0;stroke-linecap: square;" /><line x1="883.15" y1="742.36" x2="911.73" y2="648.34" style="stroke-width: 0.5;stroke: rgb(0,0,0);stroke-opacity: 1.0;stroke-linecap: square;" /><line x1="758.18" y1="746.69" x2="762.67" y2="599.89" style="stroke-width: 0.5;stroke: rgb(0,0,0);stroke-opacity: 1.0;stroke-linecap: square;" /><line x1="1302.94" y1="338.12" x2="1573.75" y2="245.67" style="stroke-width: 0.5;stroke: rgb(0,0,0);stroke-opacity: 1.0;stroke-linecap: square;" /><ellipse cx="1164.2" cy="248.01" rx="17.1" ry="17.1" style="fill: rgb(255,255,255); fill-opacity: 1.0" /><ellipse cx="1164.2" cy="248.01" rx="17.1" ry="17.1" style="stroke-width: 0.5;stroke: rgb(0,0,0);stroke-opacity: 1.0;stroke-linecap: square;; fill: none" /><g style="fill: rgb(227,26,28); fill-opacity: 1.0; stroke: none" ><path d="M 1181.3 248.01 C 1181.3 240.6 1176.53 234.03 1169.48 231.74 L 1164.2 248.01 Z "/></g><g style="fill: rgb(251,154,153); fill-opacity: 1.0; stroke: none" ><path d="M 1169.48 231.74 C 1161.8 229.25 1153.42 232.46 1149.38 239.46 C 1145.35 246.45 1146.75 255.31 1152.75 260.72 C 1158.75 266.12 1167.71 266.59 1174.25 261.84 L 1164.2 248.01 Z "/></g><g style="fill: rgb(166,206,227); fill-opacity: 1.0; stroke: none" ><path d="M 1174.25 261.84 C 1175.7 260.79 1176.98 259.51 1178.03 258.06 L 1164.2 248.01 Z "/></g><g style="fill: rgb(166,206,227); fill-opacity: 1.0; stroke: none" ><path d="M 1178.03 258.06 C 1180.15 255.14 1181.3 251.62 1181.3 248.01 L 1164.2 248.01 Z "/></g><ellipse cx="1172.56" cy="385.42" rx="75" ry="75" style="fill: rgb(255,255,255); fill-opacity: 1.0" /><ellipse cx="1172.56" cy="385.42" rx="75" ry="75" style="stroke-width: 0.5;stroke: rgb(0,0,0);stroke-opacity: 1.0;stroke-linecap: square;; fill: none" /><g style="fill: rgb(253,191,111); fill-opacity: 1.0; stroke: none" ><path d="M 1247.56 385.42 C 1247.56 374.46 1245.16 363.63 1240.52 353.7 L 1172.56 385.42 Z "/></g><g style="fill: rgb(253,191,111); fill-opacity: 1.0; stroke: none" ><path d="M 1240.52 353.7 C 1239.75 352.05 1238.92 350.43 1238.04 348.84 L 1172.56 385.42 Z "/></g><g style="fill: rgb(255,127,0); fill-opacity: 1.0; stroke: none" ><path d="M 1238.04 348.84 C 1232.99 339.81 1226.13 331.91 1217.89 325.66 L 1172.56 385.42 Z "/></g><g style="fill: rgb(255,255,255); fill-opacity: 1.0; stroke: none" ><path d="M 1217.89 325.66 C 1216.44 324.56 1214.95 323.51 1213.42 322.52 L 1172.56 385.42 Z "/></g><g style="fill: rgb(202,178,214); fill-opacity: 1.0; stroke: none" ><path d="M 1213.42 322.52 C 1210.88 320.87 1208.24 319.37 1205.51 318.04 L 1172.56 385.42 Z "/></g><g style="fill: rgb(178,223,138); fill-opacity: 1.0; stroke: none" ><path d="M 1205.51 318.04 C 1197.86 314.3 1189.64 311.89 1181.18 310.91 L 1172.56 385.42 Z "/></g><g style="fill: rgb(31,120,180); fill-opacity: 1.0; stroke: none" ><path d="M 1181.18 310.91 C 1176.36 310.35 1171.49 310.27 1166.65 310.65 L 1172.56 385.42 Z "/></g><g style="fill: rgb(51,160,44); fill-opacity: 1.0; stroke: none" ><path d="M 1166.65 310.65 C 1156.95 311.42 1147.49 314.06 1138.79 318.45 L 1172.56 385.42 Z "/></g><g style="fill: rgb(178,223,138); fill-opacity: 1.0; stroke: none" ><path d="M 1138.79 318.45 C 1135.54 320.09 1132.42 321.96 1129.44 324.05 L 1172.56 385.42 Z "/></g><g style="fill: rgb(51,160,44); fill-opacity: 1.0; stroke: none" ><path d="M 1129.44 324.05 C 1112.84 335.72 1101.68 353.6 1098.49 373.64 L 1172.56 385.42 Z "/></g><g style="fill: rgb(251,154,153); fill-opacity: 1.0; stroke: none" ><path d="M 1098.49 373.64 C 1096.09 388.73 1098.36 404.19 1104.99 417.96 L 1172.56 385.42 Z "/></g><g style="fill: rgb(227,26,28); fill-opacity: 1.0; stroke: none" ><path d="M 1104.99 417.96 C 1111.08 430.61 1120.6 441.29 1132.47 448.8 L 1172.56 385.42 Z "/></g><g style="fill: rgb(251,154,153); fill-opacity: 1.0; stroke: none" ><path d="M 1132.47 448.8 C 1140.69 454 1149.85 457.56 1159.44 459.26 L 1172.56 385.42 Z "/></g><g style="fill: rgb(106,61,154); fill-opacity: 1.0; stroke: none" ><path d="M 1159.44 459.26 C 1176.32 462.26 1193.72 459.38 1208.74 451.11 L 1172.56 385.42 Z "/></g><g style="fill: rgb(166,206,227); fill-opacity: 1.0; stroke: none" ><path d="M 1208.74 451.11 C 1219.42 445.23 1228.5 436.84 1235.2 426.66 L 1172.56 385.42 Z "/></g><g style="fill: rgb(166,206,227); fill-opacity: 1.0; stroke: none" ><path d="M 1235.2 426.66 C 1237.54 423.11 1239.57 419.37 1241.27 415.48 L 1172.56 385.42 Z "/></g><g style="fill: rgb(31,120,180); fill-opacity: 1.0; stroke: none" ><path d="M 1241.27 415.48 C 1245.42 406 1247.56 395.76 1247.56 385.42 L 1172.56 385.42 Z "/></g><ellipse cx="924.49" cy="180" rx="16.13" ry="16.13" style="fill: rgb(255,255,255); fill-opacity: 1.0" /><ellipse cx="924.49" cy="180" rx="16.13" ry="16.13" style="stroke-width: 0.5;stroke: rgb(0,0,0);stroke-opacity: 1.0;stroke-linecap: square;; fill: none" /><g style="fill: rgb(178,223,138); fill-opacity: 1.0; stroke: none" ><path d="M 940.62 180 C 940.62 171.7 934.33 164.76 926.07 163.94 C 917.81 163.13 910.29 168.71 908.67 176.85 C 907.05 184.99 911.87 193.03 919.81 195.44 C 927.75 197.85 936.22 193.84 939.4 186.17 L 924.49 180 Z "/></g><g style="fill: rgb(166,206,227); fill-opacity: 1.0; stroke: none" ><path d="M 939.4 186.17 C 940.21 184.22 940.62 182.12 940.62 180 L 924.49 180 Z "/></g><ellipse cx="373.59" cy="988.03" rx="12.5" ry="12.5" style="fill: rgb(255,255,255); fill-opacity: 1.0" /><ellipse cx="373.59" cy="988.03" rx="12.5" ry="12.5" style="stroke-width: 0.5;stroke: rgb(0,0,0);stroke-opacity: 1.0;stroke-linecap: square;; fill: none" /><ellipse cx="373.59" cy="988.03" rx="12.5" ry="12.5" style="fill: rgb(255,255,255); fill-opacity: 1.0" /><ellipse cx="1250.8" cy="277.96" rx="17.83" ry="17.83" style="fill: rgb(255,255,255); fill-opacity: 1.0" /><ellipse cx="1250.8" cy="277.96" rx="17.83" ry="17.83" style="stroke-width: 0.5;stroke: rgb(0,0,0);stroke-opacity: 1.0;stroke-linecap: square;; fill: none" /><g style="fill: rgb(253,191,111); fill-opacity: 1.0; stroke: none" ><path d="M 1268.63 277.96 C 1268.63 272.17 1265.81 266.74 1261.08 263.4 C 1256.35 260.06 1250.28 259.22 1244.83 261.16 L 1250.8 277.96 Z "/></g><g style="fill: rgb(178,223,138); fill-opacity: 1.0; stroke: none" ><path d="M 1244.83 261.16 C 1239.37 263.1 1235.19 267.57 1233.63 273.15 C 1232.07 278.73 1233.31 284.72 1236.97 289.21 L 1250.8 277.96 Z "/></g><g style="fill: rgb(251,154,153); fill-opacity: 1.0; stroke: none" ><path d="M 1236.97 289.21 C 1237.99 290.48 1239.19 291.59 1240.51 292.53 L 1250.8 277.96 Z "/></g><g style="fill: rgb(227,26,28); fill-opacity: 1.0; stroke: none" ><path d="M 1240.51 292.53 C 1244.55 295.38 1249.59 296.42 1254.42 295.42 C 1259.26 294.41 1263.46 291.45 1266.03 287.23 L 1250.8 277.96 Z "/></g><g style="fill: rgb(251,154,153); fill-opacity: 1.0; stroke: none" ><path d="M 1266.03 287.23 C 1267.73 284.43 1268.63 281.23 1268.63 277.96 L 1250.8 277.96 Z "/></g><ellipse cx="249.4" cy="839.63" rx="12.98" ry="12.98" style="fill: rgb(255,255,255); fill-opacity: 1.0" /><ellipse cx="249.4" cy="839.63" rx="12.98" ry="12.98" style="stroke-width: 0.5;stroke: rgb(0,0,0);stroke-opacity: 1.0;stroke-linecap: square;; fill: none" /><ellipse cx="249.4" cy="839.63" rx="12.98" ry="12.98" style="fill: rgb(255,255,255); fill-opacity: 1.0" /><ellipse cx="841.02" cy="398.17" rx="14.2" ry="14.2" style="fill: rgb(255,255,255); fill-opacity: 1.0" /><ellipse cx="841.02" cy="398.17" rx="14.2" ry="14.2" style="stroke-width: 0.5;stroke: rgb(0,0,0);stroke-opacity: 1.0;stroke-linecap: square;; fill: none" /><ellipse cx="841.02" cy="398.17" rx="14.2" ry="14.2" style="fill: rgb(31,120,180); fill-opacity: 1.0" /><ellipse cx="1302.79" cy="377.3" rx="13.71" ry="13.71" style="fill: rgb(255,255,255); fill-opacity: 1.0" /><ellipse cx="1302.79" cy="377.3" rx="13.71" ry="13.71" style="stroke-width: 0.5;stroke: rgb(0,0,0);stroke-opacity: 1.0;stroke-linecap: square;; fill: none" /><g style="fill: rgb(253,191,111); fill-opacity: 1.0; stroke: none" ><path d="M 1316.51 377.3 C 1316.51 370.65 1311.73 364.96 1305.18 363.8 C 1298.62 362.64 1292.19 366.36 1289.91 372.61 C 1287.63 378.87 1290.18 385.85 1295.94 389.18 L 1302.79 377.3 Z "/></g><g style="fill: rgb(251,154,153); fill-opacity: 1.0; stroke: none" ><path d="M 1295.94 389.18 C 1300.18 391.63 1305.41 391.63 1309.65 389.18 C 1313.89 386.73 1316.51 382.2 1316.51 377.3 L 1302.79 377.3 Z "/></g><ellipse cx="878.34" cy="317.13" rx="15.16" ry="15.16" style="fill: rgb(255,255,255); fill-opacity: 1.0" /><ellipse cx="878.34" cy="317.13" rx="15.16" ry="15.16" style="stroke-width: 0.5;stroke: rgb(0,0,0);stroke-opacity: 1.0;stroke-linecap: square;; fill: none" /><g style="fill: rgb(227,26,28); fill-opacity: 1.0; stroke: none" ><path d="M 893.5 317.13 C 893.5 308.76 886.71 301.97 878.34 301.97 C 869.96 301.97 863.17 308.76 863.17 317.13 L 878.34 317.13 Z "/></g><g style="fill: rgb(253,191,111); fill-opacity: 1.0; stroke: none" ><path d="M 863.17 317.13 C 863.17 319.8 863.88 322.41 865.21 324.72 L 878.34 317.13 Z "/></g><g style="fill: rgb(255,127,0); fill-opacity: 1.0; stroke: none" ><path d="M 865.21 324.72 C 867.91 329.41 872.92 332.3 878.34 332.3 L 878.34 317.13 Z "/></g><g style="fill: rgb(51,160,44); fill-opacity: 1.0; stroke: none" ><path d="M 878.34 332.3 C 886.71 332.3 893.5 325.51 893.5 317.13 L 878.34 317.13 Z "/></g><ellipse cx="920.99" cy="398.17" rx="14.2" ry="14.2" style="fill: rgb(255,255,255); fill-opacity: 1.0" /><ellipse cx="920.99" cy="398.17" rx="14.2" ry="14.2" style="stroke-width: 0.5;stroke: rgb(0,0,0);stroke-opacity: 1.0;stroke-linecap: square;; fill: none" /><g style="fill: rgb(227,26,28); fill-opacity: 1.0; stroke: none" ><path d="M 935.18 398.17 C 935.18 390.33 928.83 383.97 920.99 383.97 L 920.99 398.17 Z "/></g><g style="fill: rgb(202,178,214); fill-opacity: 1.0; stroke: none" ><path d="M 920.99 383.97 C 917.22 383.97 913.61 385.47 910.95 388.13 L 920.99 398.17 Z "/></g><g style="fill: rgb(251,154,153); fill-opacity: 1.0; stroke: none" ><path d="M 910.95 388.13 C 908.29 390.79 906.79 394.4 906.79 398.17 L 920.99 398.17 Z "/></g><g style="fill: rgb(166,206,227); fill-opacity: 1.0; stroke: none" ><path d="M 906.79 398.17 C 906.79 406.01 913.15 412.36 920.99 412.36 C 928.83 412.36 935.18 406.01 935.18 398.17 L 920.99 398.17 Z "/></g><ellipse cx="1094.64" cy="485.66" rx="12.74" ry="12.74" style="fill: rgb(255,255,255); fill-opacity: 1.0" /><ellipse cx="1094.64" cy="485.66" rx="12.74" ry="12.74" style="stroke-width: 0.5;stroke: rgb(0,0,0);stroke-opacity: 1.0;stroke-linecap: square;; fill: none" /><ellipse cx="1094.64" cy="485.66" rx="12.74" ry="12.74" style="fill: rgb(166,206,227); fill-opacity: 1.0" /><ellipse cx="1016.94" cy="471.73" rx="12.74" ry="12.74" style="fill: rgb(255,255,255); fill-opacity: 1.0" /><ellipse cx="1016.94" cy="471.73" rx="12.74" ry="12.74" style="stroke-width: 0.5;stroke: rgb(0,0,0);stroke-opacity: 1.0;stroke-linecap: square;; fill: none" /><ellipse cx="1016.94" cy="471.73" rx="12.74" ry="12.74" style="fill: rgb(166,206,227); fill-opacity: 1.0" /><ellipse cx="962.57" cy="316.07" rx="16.13" ry="16.13" style="fill: rgb(255,255,255); fill-opacity: 1.0" /><ellipse cx="962.57" cy="316.07" rx="16.13" ry="16.13" style="stroke-width: 0.5;stroke: rgb(0,0,0);stroke-opacity: 1.0;stroke-linecap: square;; fill: none" /><g style="fill: rgb(227,26,28); fill-opacity: 1.0; stroke: none" ><path d="M 978.7 316.07 C 978.7 308.37 973.27 301.75 965.72 300.24 C 958.17 298.74 950.61 302.78 947.66 309.89 L 962.57 316.07 Z "/></g><g style="fill: rgb(178,223,138); fill-opacity: 1.0; stroke: none" ><path d="M 947.66 309.89 C 944.25 318.13 948.16 327.56 956.39 330.97 L 962.57 316.07 Z "/></g><g style="fill: rgb(51,160,44); fill-opacity: 1.0; stroke: none" ><path d="M 956.39 330.97 C 962.42 333.47 969.36 332.09 973.98 327.48 L 962.57 316.07 Z "/></g><g style="fill: rgb(51,160,44); fill-opacity: 1.0; stroke: none" ><path d="M 973.98 327.48 C 977 324.45 978.7 320.35 978.7 316.07 L 962.57 316.07 Z "/></g><ellipse cx="329.48" cy="901.88" rx="15.16" ry="15.16" style="fill: rgb(255,255,255); fill-opacity: 1.0" /><ellipse cx="329.48" cy="901.88" rx="15.16" ry="15.16" style="stroke-width: 0.5;stroke: rgb(0,0,0);stroke-opacity: 1.0;stroke-linecap: square;; fill: none" /><ellipse cx="329.48" cy="901.88" rx="15.16" ry="15.16" style="fill: rgb(255,255,255); fill-opacity: 1.0" /><ellipse cx="1148.32" cy="513.04" rx="13.71" ry="13.71" style="fill: rgb(255,255,255); fill-opacity: 1.0" /><ellipse cx="1148.32" cy="513.04" rx="13.71" ry="13.71" style="stroke-width: 0.5;stroke: rgb(0,0,0);stroke-opacity: 1.0;stroke-linecap: square;; fill: none" /><ellipse cx="1148.32" cy="513.04" rx="13.71" ry="13.71" style="fill: rgb(255,127,0); fill-opacity: 1.0" /><ellipse cx="1160.88" cy="170" rx="13.71" ry="13.71" style="fill: rgb(255,255,255); fill-opacity: 1.0" /><ellipse cx="1160.88" cy="170" rx="13.71" ry="13.71" style="stroke-width: 0.5;stroke: rgb(0,0,0);stroke-opacity: 1.0;stroke-linecap: square;; fill: none" /><ellipse cx="1160.88" cy="170" rx="13.71" ry="13.71" style="fill: rgb(227,26,28); fill-opacity: 1.0" /><ellipse cx="1275.29" cy="306.96" rx="12.98" ry="12.98" style="fill: rgb(255,255,255); fill-opacity: 1.0" /><ellipse cx="1275.29" cy="306.96" rx="12.98" ry="12.98" style="stroke-width: 0.5;stroke: rgb(0,0,0);stroke-opacity: 1.0;stroke-linecap: square;; fill: none" /><g style="fill: rgb(251,154,153); fill-opacity: 1.0; stroke: none" ><path d="M 1288.28 306.96 C 1288.28 302.32 1285.8 298.03 1281.79 295.71 C 1277.77 293.39 1272.82 293.39 1268.8 295.71 L 1275.29 306.96 Z "/></g><g style="fill: rgb(227,26,28); fill-opacity: 1.0; stroke: none" ><path d="M 1268.8 295.71 C 1263.34 298.86 1260.94 305.48 1263.09 311.4 C 1265.25 317.32 1271.34 320.84 1277.55 319.75 C 1283.75 318.65 1288.28 313.26 1288.28 306.96 L 1275.29 306.96 Z "/></g><ellipse cx="1014.25" cy="176.02" rx="13.47" ry="13.47" style="fill: rgb(255,255,255); fill-opacity: 1.0" /><ellipse cx="1014.25" cy="176.02" rx="13.47" ry="13.47" style="stroke-width: 0.5;stroke: rgb(0,0,0);stroke-opacity: 1.0;stroke-linecap: square;; fill: none" /><ellipse cx="1014.25" cy="176.02" rx="13.47" ry="13.47" style="fill: rgb(31,120,180); fill-opacity: 1.0" /><ellipse cx="1210.43" cy="258.84" rx="17.83" ry="17.83" style="fill: rgb(255,255,255); fill-opacity: 1.0" /><ellipse cx="1210.43" cy="258.84" rx="17.83" ry="17.83" style="stroke-width: 0.5;stroke: rgb(0,0,0);stroke-opacity: 1.0;stroke-linecap: square;; fill: none" /><g style="fill: rgb(255,127,0); fill-opacity: 1.0; stroke: none" ><path d="M 1228.26 258.84 C 1228.26 253.9 1226.21 249.18 1222.6 245.81 C 1218.99 242.44 1214.14 240.72 1209.21 241.05 L 1210.43 258.84 Z "/></g><g style="fill: rgb(202,178,214); fill-opacity: 1.0; stroke: none" ><path d="M 1209.21 241.05 C 1199.54 241.71 1192.17 249.97 1192.62 259.65 C 1193.06 269.33 1201.15 276.89 1210.83 276.67 C 1220.52 276.45 1228.26 268.53 1228.26 258.84 L 1210.43 258.84 Z "/></g><ellipse cx="1286.9" cy="448.66" rx="12.5" ry="12.5" style="fill: rgb(255,255,255); fill-opacity: 1.0" /><ellipse cx="1286.9" cy="448.66" rx="12.5" ry="12.5" style="stroke-width: 0.5;stroke: rgb(0,0,0);stroke-opacity: 1.0;stroke-linecap: square;; fill: none" /><ellipse cx="1286.9" cy="448.66" rx="12.5" ry="12.5" style="fill: rgb(227,26,28); fill-opacity: 1.0" /><ellipse cx="1048.55" cy="311.88" rx="12.74" ry="12.74" style="fill: rgb(255,255,255); fill-opacity: 1.0" /><ellipse cx="1048.55" cy="311.88" rx="12.74" ry="12.74" style="stroke-width: 0.5;stroke: rgb(0,0,0);stroke-opacity: 1.0;stroke-linecap: square;; fill: none" /><ellipse cx="1048.55" cy="311.88" rx="12.74" ry="12.74" style="fill: rgb(51,160,44); fill-opacity: 1.0" /><ellipse cx="1302.94" cy="338.12" rx="12.5" ry="12.5" style="fill: rgb(255,255,255); fill-opacity: 1.0" /><ellipse cx="1302.94" cy="338.12" rx="12.5" ry="12.5" style="stroke-width: 0.5;stroke: rgb(0,0,0);stroke-opacity: 1.0;stroke-linecap: square;; fill: none" /><ellipse cx="1302.94" cy="338.12" rx="12.5" ry="12.5" style="fill: rgb(255,127,0); fill-opacity: 1.0" /><ellipse cx="302.74" cy="993.07" rx="12.98" ry="12.98" style="fill: rgb(255,255,255); fill-opacity: 1.0" /><ellipse cx="302.74" cy="993.07" rx="12.98" ry="12.98" style="stroke-width: 0.5;stroke: rgb(0,0,0);stroke-opacity: 1.0;stroke-linecap: square;; fill: none" /><ellipse cx="302.74" cy="993.07" rx="12.98" ry="12.98" style="fill: rgb(255,255,255); fill-opacity: 1.0" /><ellipse cx="1194.63" cy="513.43" rx="12.74" ry="12.74" style="fill: rgb(255,255,255); fill-opacity: 1.0" /><ellipse cx="1194.63" cy="513.43" rx="12.74" ry="12.74" style="stroke-width: 0.5;stroke: rgb(0,0,0);stroke-opacity: 1.0;stroke-linecap: square;; fill: none" /><ellipse cx="1194.63" cy="513.43" rx="12.74" ry="12.74" style="fill: rgb(166,206,227); fill-opacity: 1.0" /><ellipse cx="340.14" cy="1072" rx="12.5" ry="12.5" style="fill: rgb(255,255,255); fill-opacity: 1.0" /><ellipse cx="340.14" cy="1072" rx="12.5" ry="12.5" style="stroke-width: 0.5;stroke: rgb(0,0,0);stroke-opacity: 1.0;stroke-linecap: square;; fill: none" /><ellipse cx="340.14" cy="1072" rx="12.5" ry="12.5" style="fill: rgb(255,255,255); fill-opacity: 1.0" /><ellipse cx="254.38" cy="954.12" rx="12.5" ry="12.5" style="fill: rgb(255,255,255); fill-opacity: 1.0" /><ellipse cx="254.38" cy="954.12" rx="12.5" ry="12.5" style="stroke-width: 0.5;stroke: rgb(0,0,0);stroke-opacity: 1.0;stroke-linecap: square;; fill: none" /><ellipse cx="254.38" cy="954.12" rx="12.5" ry="12.5" style="fill: rgb(255,255,255); fill-opacity: 1.0" /><ellipse cx="1108.38" cy="275.73" rx="12.74" ry="12.74" style="fill: rgb(255,255,255); fill-opacity: 1.0" /><ellipse cx="1108.38" cy="275.73" rx="12.74" ry="12.74" style="stroke-width: 0.5;stroke: rgb(0,0,0);stroke-opacity: 1.0;stroke-linecap: square;; fill: none" /><ellipse cx="1108.38" cy="275.73" rx="12.74" ry="12.74" style="fill: rgb(178,223,138); fill-opacity: 1.0" /><ellipse cx="1234.23" cy="499.93" rx="12.5" ry="12.5" style="fill: rgb(255,255,255); fill-opacity: 1.0" /><ellipse cx="1234.23" cy="499.93" rx="12.5" ry="12.5" style="stroke-width: 0.5;stroke: rgb(0,0,0);stroke-opacity: 1.0;stroke-linecap: square;; fill: none" /><ellipse cx="1234.23" cy="499.93" rx="12.5" ry="12.5" style="fill: rgb(178,223,138); fill-opacity: 1.0" /><ellipse cx="1299.63" cy="413.99" rx="12.74" ry="12.74" style="fill: rgb(255,255,255); fill-opacity: 1.0" /><ellipse cx="1299.63" cy="413.99" rx="12.74" ry="12.74" style="stroke-width: 0.5;stroke: rgb(0,0,0);stroke-opacity: 1.0;stroke-linecap: square;; fill: none" /><ellipse cx="1299.63" cy="413.99" rx="12.74" ry="12.74" style="fill: rgb(251,154,153); fill-opacity: 1.0" /><ellipse cx="437.21" cy="926.74" rx="12.5" ry="12.5" style="fill: rgb(255,255,255); fill-opacity: 1.0" /><ellipse cx="437.21" cy="926.74" rx="12.5" ry="12.5" style="stroke-width: 0.5;stroke: rgb(0,0,0);stroke-opacity: 1.0;stroke-linecap: square;; fill: none" /><ellipse cx="437.21" cy="926.74" rx="12.5" ry="12.5" style="fill: rgb(255,255,255); fill-opacity: 1.0" /><ellipse cx="330.69" cy="814.39" rx="12.74" ry="12.74" style="fill: rgb(255,255,255); fill-opacity: 1.0" /><ellipse cx="330.69" cy="814.39" rx="12.74" ry="12.74" style="stroke-width: 0.5;stroke: rgb(0,0,0);stroke-opacity: 1.0;stroke-linecap: square;; fill: none" /><ellipse cx="330.69" cy="814.39" rx="12.74" ry="12.74" style="fill: rgb(255,255,255); fill-opacity: 1.0" /><ellipse cx="170" cy="799.41" rx="12.5" ry="12.5" style="fill: rgb(255,255,255); fill-opacity: 1.0" /><ellipse cx="170" cy="799.41" rx="12.5" ry="12.5" style="stroke-width: 0.5;stroke: rgb(0,0,0);stroke-opacity: 1.0;stroke-linecap: square;; fill: none" /><ellipse cx="170" cy="799.41" rx="12.5" ry="12.5" style="fill: rgb(255,255,255); fill-opacity: 1.0" /><ellipse cx="416.98" cy="838.35" rx="12.5" ry="12.5" style="fill: rgb(255,255,255); fill-opacity: 1.0" /><ellipse cx="416.98" cy="838.35" rx="12.5" ry="12.5" style="stroke-width: 0.5;stroke: rgb(0,0,0);stroke-opacity: 1.0;stroke-linecap: square;; fill: none" /><ellipse cx="416.98" cy="838.35" rx="12.5" ry="12.5" style="fill: rgb(255,255,255); fill-opacity: 1.0" /><ellipse cx="1263.49" cy="478.57" rx="12.5" ry="12.5" style="fill: rgb(255,255,255); fill-opacity: 1.0" /><ellipse cx="1263.49" cy="478.57" rx="12.5" ry="12.5" style="stroke-width: 0.5;stroke: rgb(0,0,0);stroke-opacity: 1.0;stroke-linecap: square;; fill: none" /><ellipse cx="1263.49" cy="478.57" rx="12.5" ry="12.5" style="fill: rgb(51,160,44); fill-opacity: 1.0" /><ellipse cx="446.37" cy="491.69" rx="12.5" ry="12.5" style="fill: rgb(255,255,255); fill-opacity: 1.0" /><ellipse cx="446.37" cy="491.69" rx="12.5" ry="12.5" style="stroke-width: 0.5;stroke: rgb(0,0,0);stroke-opacity: 1.0;stroke-linecap: square;; fill: none" /><ellipse cx="446.37" cy="491.69" rx="12.5" ry="12.5" style="fill: rgb(255,255,255); fill-opacity: 1.0" /><ellipse cx="972.85" cy="812.35" rx="12.5" ry="12.5" style="fill: rgb(255,255,255); fill-opacity: 1.0" /><ellipse cx="972.85" cy="812.35" rx="12.5" ry="12.5" style="stroke-width: 0.5;stroke: rgb(0,0,0);stroke-opacity: 1.0;stroke-linecap: square;; fill: none" /><ellipse cx="972.85" cy="812.35" rx="12.5" ry="12.5" style="fill: rgb(255,255,255); fill-opacity: 1.0" /><ellipse cx="368.02" cy="765.92" rx="12.5" ry="12.5" style="fill: rgb(255,255,255); fill-opacity: 1.0" /><ellipse cx="368.02" cy="765.92" rx="12.5" ry="12.5" style="stroke-width: 0.5;stroke: rgb(0,0,0);stroke-opacity: 1.0;stroke-linecap: square;; fill: none" /><ellipse cx="368.02" cy="765.92" rx="12.5" ry="12.5" style="fill: rgb(255,255,255); fill-opacity: 1.0" /><ellipse cx="1109.02" cy="854.27" rx="12.5" ry="12.5" style="fill: rgb(255,255,255); fill-opacity: 1.0" /><ellipse cx="1109.02" cy="854.27" rx="12.5" ry="12.5" style="stroke-width: 0.5;stroke: rgb(0,0,0);stroke-opacity: 1.0;stroke-linecap: square;; fill: none" /><ellipse cx="1109.02" cy="854.27" rx="12.5" ry="12.5" style="fill: rgb(255,255,255); fill-opacity: 1.0" /><ellipse cx="1057.48" cy="783.07" rx="12.5" ry="12.5" style="fill: rgb(255,255,255); fill-opacity: 1.0" /><ellipse cx="1057.48" cy="783.07" rx="12.5" ry="12.5" style="stroke-width: 0.5;stroke: rgb(0,0,0);stroke-opacity: 1.0;stroke-linecap: square;; fill: none" /><ellipse cx="1057.48" cy="783.07" rx="12.5" ry="12.5" style="fill: rgb(255,255,255); fill-opacity: 1.0" /><ellipse cx="969.22" cy="561.86" rx="12.5" ry="12.5" style="fill: rgb(255,255,255); fill-opacity: 1.0" /><ellipse cx="969.22" cy="561.86" rx="12.5" ry="12.5" style="stroke-width: 0.5;stroke: rgb(0,0,0);stroke-opacity: 1.0;stroke-linecap: square;; fill: none" /><ellipse cx="969.22" cy="561.86" rx="12.5" ry="12.5" style="fill: rgb(255,255,255); fill-opacity: 1.0" /><ellipse cx="564.61" cy="618.89" rx="12.5" ry="12.5" style="fill: rgb(255,255,255); fill-opacity: 1.0" /><ellipse cx="564.61" cy="618.89" rx="12.5" ry="12.5" style="stroke-width: 0.5;stroke: rgb(0,0,0);stroke-opacity: 1.0;stroke-linecap: square;; fill: none" /><ellipse cx="564.61" cy="618.89" rx="12.5" ry="12.5" style="fill: rgb(255,255,255); fill-opacity: 1.0" /><ellipse cx="397.87" cy="603.94" rx="12.5" ry="12.5" style="fill: rgb(255,255,255); fill-opacity: 1.0" /><ellipse cx="397.87" cy="603.94" rx="12.5" ry="12.5" style="stroke-width: 0.5;stroke: rgb(0,0,0);stroke-opacity: 1.0;stroke-linecap: square;; fill: none" /><ellipse cx="397.87" cy="603.94" rx="12.5" ry="12.5" style="fill: rgb(255,255,255); fill-opacity: 1.0" /><ellipse cx="606.78" cy="787.92" rx="12.5" ry="12.5" style="fill: rgb(255,255,255); fill-opacity: 1.0" /><ellipse cx="606.78" cy="787.92" rx="12.5" ry="12.5" style="stroke-width: 0.5;stroke: rgb(0,0,0);stroke-opacity: 1.0;stroke-linecap: square;; fill: none" /><ellipse cx="606.78" cy="787.92" rx="12.5" ry="12.5" style="fill: rgb(255,255,255); fill-opacity: 1.0" /><ellipse cx="561.86" cy="369.69" rx="12.5" ry="12.5" style="fill: rgb(255,255,255); fill-opacity: 1.0" /><ellipse cx="561.86" cy="369.69" rx="12.5" ry="12.5" style="stroke-width: 0.5;stroke: rgb(0,0,0);stroke-opacity: 1.0;stroke-linecap: square;; fill: none" /><ellipse cx="561.86" cy="369.69" rx="12.5" ry="12.5" style="fill: rgb(255,255,255); fill-opacity: 1.0" /><ellipse cx="585.89" cy="454.2" rx="12.5" ry="12.5" style="fill: rgb(255,255,255); fill-opacity: 1.0" /><ellipse cx="585.89" cy="454.2" rx="12.5" ry="12.5" style="stroke-width: 0.5;stroke: rgb(0,0,0);stroke-opacity: 1.0;stroke-linecap: square;; fill: none" /><ellipse cx="585.89" cy="454.2" rx="12.5" ry="12.5" style="fill: rgb(255,255,255); fill-opacity: 1.0" /><ellipse cx="411.79" cy="705.88" rx="12.5" ry="12.5" style="fill: rgb(255,255,255); fill-opacity: 1.0" /><ellipse cx="411.79" cy="705.88" rx="12.5" ry="12.5" style="stroke-width: 0.5;stroke: rgb(0,0,0);stroke-opacity: 1.0;stroke-linecap: square;; fill: none" /><ellipse cx="411.79" cy="705.88" rx="12.5" ry="12.5" style="fill: rgb(255,255,255); fill-opacity: 1.0" /><ellipse cx="763.9" cy="834.07" rx="12.5" ry="12.5" style="fill: rgb(255,255,255); fill-opacity: 1.0" /><ellipse cx="763.9" cy="834.07" rx="12.5" ry="12.5" style="stroke-width: 0.5;stroke: rgb(0,0,0);stroke-opacity: 1.0;stroke-linecap: square;; fill: none" /><ellipse cx="763.9" cy="834.07" rx="12.5" ry="12.5" style="fill: rgb(255,255,255); fill-opacity: 1.0" /><ellipse cx="758.18" cy="746.69" rx="12.5" ry="12.5" style="fill: rgb(255,255,255); fill-opacity: 1.0" /><ellipse cx="758.18" cy="746.69" rx="12.5" ry="12.5" style="stroke-width: 0.5;stroke: rgb(0,0,0);stroke-opacity: 1.0;stroke-linecap: square;; fill: none" /><ellipse cx="758.18" cy="746.69" rx="12.5" ry="12.5" style="fill: rgb(255,255,255); fill-opacity: 1.0" /><ellipse cx="883.15" cy="742.36" rx="12.5" ry="12.5" style="fill: rgb(255,255,255); fill-opacity: 1.0" /><ellipse cx="883.15" cy="742.36" rx="12.5" ry="12.5" style="stroke-width: 0.5;stroke: rgb(0,0,0);stroke-opacity: 1.0;stroke-linecap: square;; fill: none" /><ellipse cx="883.15" cy="742.36" rx="12.5" ry="12.5" style="fill: rgb(255,255,255); fill-opacity: 1.0" /><ellipse cx="1573.75" cy="245.67" rx="12.5" ry="12.5" style="fill: rgb(255,255,255); fill-opacity: 1.0" /><ellipse cx="1573.75" cy="245.67" rx="12.5" ry="12.5" style="stroke-width: 0.5;stroke: rgb(0,0,0);stroke-opacity: 1.0;stroke-linecap: square;; fill: none" /><ellipse cx="1573.75" cy="245.67" rx="12.5" ry="12.5" style="fill: rgb(255,255,255); fill-opacity: 1.0" /><ellipse cx="1655.98" cy="215.4" rx="12.5" ry="12.5" style="fill: rgb(255,255,255); fill-opacity: 1.0" /><ellipse cx="1655.98" cy="215.4" rx="12.5" ry="12.5" style="stroke-width: 0.5;stroke: rgb(0,0,0);stroke-opacity: 1.0;stroke-linecap: square;; fill: none" /><ellipse cx="1655.98" cy="215.4" rx="12.5" ry="12.5" style="fill: rgb(255,255,255); fill-opacity: 1.0" /><ellipse cx="236.86" cy="900.17" rx="12.5" ry="12.5" style="fill: rgb(255,255,255); fill-opacity: 1.0" /><ellipse cx="236.86" cy="900.17" rx="12.5" ry="12.5" style="stroke-width: 0.5;stroke: rgb(0,0,0);stroke-opacity: 1.0;stroke-linecap: square;; fill: none" /><ellipse cx="236.86" cy="900.17" rx="12.5" ry="12.5" style="fill: rgb(255,255,255); fill-opacity: 1.0" /><ellipse cx="1016.31" cy="393.15" rx="12.5" ry="12.5" style="fill: rgb(255,255,255); fill-opacity: 1.0" /><ellipse cx="1016.31" cy="393.15" rx="12.5" ry="12.5" style="stroke-width: 0.5;stroke: rgb(0,0,0);stroke-opacity: 1.0;stroke-linecap: square;; fill: none" /><ellipse cx="1016.31" cy="393.15" rx="12.5" ry="12.5" style="fill: rgb(255,255,255); fill-opacity: 1.0" /><ellipse cx="962.57" cy="238.24" rx="12.5" ry="12.5" style="fill: rgb(255,255,255); fill-opacity: 1.0" /><ellipse cx="962.57" cy="238.24" rx="12.5" ry="12.5" style="stroke-width: 0.5;stroke: rgb(0,0,0);stroke-opacity: 1.0;stroke-linecap: square;; fill: none" /><ellipse cx="962.57" cy="238.24" rx="12.5" ry="12.5" style="fill: rgb(255,255,255); fill-opacity: 1.0" /><ellipse cx="487.02" cy="753.85" rx="12.5" ry="12.5" style="fill: rgb(255,255,255); fill-opacity: 1.0" /><ellipse cx="487.02" cy="753.85" rx="12.5" ry="12.5" style="stroke-width: 0.5;stroke: rgb(0,0,0);stroke-opacity: 1.0;stroke-linecap: square;; fill: none" /><ellipse cx="487.02" cy="753.85" rx="12.5" ry="12.5" style="fill: rgb(255,255,255); fill-opacity: 1.0" /><ellipse cx="579.62" cy="704.78" rx="12.5" ry="12.5" style="fill: rgb(255,255,255); fill-opacity: 1.0" /><ellipse cx="579.62" cy="704.78" rx="12.5" ry="12.5" style="stroke-width: 0.5;stroke: rgb(0,0,0);stroke-opacity: 1.0;stroke-linecap: square;; fill: none" /><ellipse cx="579.62" cy="704.78" rx="12.5" ry="12.5" style="fill: rgb(255,255,255); fill-opacity: 1.0" /><ellipse cx="473.83" cy="654.46" rx="12.5" ry="12.5" style="fill: rgb(255,255,255); fill-opacity: 1.0" /><ellipse cx="473.83" cy="654.46" rx="12.5" ry="12.5" style="stroke-width: 0.5;stroke: rgb(0,0,0);stroke-opacity: 1.0;stroke-linecap: square;; fill: none" /><ellipse cx="473.83" cy="654.46" rx="12.5" ry="12.5" style="fill: rgb(255,255,255); fill-opacity: 1.0" /><ellipse cx="502.74" cy="562.6" rx="12.5" ry="12.5" style="fill: rgb(255,255,255); fill-opacity: 1.0" /><ellipse cx="502.74" cy="562.6" rx="12.5" ry="12.5" style="stroke-width: 0.5;stroke: rgb(0,0,0);stroke-opacity: 1.0;stroke-linecap: square;; fill: none" /><ellipse cx="502.74" cy="562.6" rx="12.5" ry="12.5" style="fill: rgb(255,255,255); fill-opacity: 1.0" /><ellipse cx="595.83" cy="547.39" rx="12.5" ry="12.5" style="fill: rgb(255,255,255); fill-opacity: 1.0" /><ellipse cx="595.83" cy="547.39" rx="12.5" ry="12.5" style="stroke-width: 0.5;stroke: rgb(0,0,0);stroke-opacity: 1.0;stroke-linecap: square;; fill: none" /><ellipse cx="595.83" cy="547.39" rx="12.5" ry="12.5" style="fill: rgb(255,255,255); fill-opacity: 1.0" /><ellipse cx="654.06" cy="628.03" rx="12.5" ry="12.5" style="fill: rgb(255,255,255); fill-opacity: 1.0" /><ellipse cx="654.06" cy="628.03" rx="12.5" ry="12.5" style="stroke-width: 0.5;stroke: rgb(0,0,0);stroke-opacity: 1.0;stroke-linecap: square;; fill: none" /><ellipse cx="654.06" cy="628.03" rx="12.5" ry="12.5" style="fill: rgb(255,255,255); fill-opacity: 1.0" /><ellipse cx="982.33" cy="722.33" rx="12.5" ry="12.5" style="fill: rgb(255,255,255); fill-opacity: 1.0" /><ellipse cx="982.33" cy="722.33" rx="12.5" ry="12.5" style="stroke-width: 0.5;stroke: rgb(0,0,0);stroke-opacity: 1.0;stroke-linecap: square;; fill: none" /><ellipse cx="982.33" cy="722.33" rx="12.5" ry="12.5" style="fill: rgb(255,255,255); fill-opacity: 1.0" /><ellipse cx="933.63" cy="475.72" rx="12.5" ry="12.5" style="fill: rgb(255,255,255); fill-opacity: 1.0" /><ellipse cx="933.63" cy="475.72" rx="12.5" ry="12.5" style="stroke-width: 0.5;stroke: rgb(0,0,0);stroke-opacity: 1.0;stroke-linecap: square;; fill: none" /><ellipse cx="933.63" cy="475.72" rx="12.5" ry="12.5" style="fill: rgb(255,255,255); fill-opacity: 1.0" /><ellipse cx="861.75" cy="562.22" rx="12.5" ry="12.5" style="fill: rgb(255,255,255); fill-opacity: 1.0" /><ellipse cx="861.75" cy="562.22" rx="12.5" ry="12.5" style="stroke-width: 0.5;stroke: rgb(0,0,0);stroke-opacity: 1.0;stroke-linecap: square;; fill: none" /><ellipse cx="861.75" cy="562.22" rx="12.5" ry="12.5" style="fill: rgb(255,255,255); fill-opacity: 1.0" /><ellipse cx="911.73" cy="648.34" rx="12.5" ry="12.5" style="fill: rgb(255,255,255); fill-opacity: 1.0" /><ellipse cx="911.73" cy="648.34" rx="12.5" ry="12.5" style="stroke-width: 0.5;stroke: rgb(0,0,0);stroke-opacity: 1.0;stroke-linecap: square;; fill: none" /><ellipse cx="911.73" cy="648.34" rx="12.5" ry="12.5" style="fill: rgb(255,255,255); fill-opacity: 1.0" /><ellipse cx="762.67" cy="599.89" rx="12.5" ry="12.5" style="fill: rgb(255,255,255); fill-opacity: 1.0" /><ellipse cx="762.67" cy="599.89" rx="12.5" ry="12.5" style="stroke-width: 0.5;stroke: rgb(0,0,0);stroke-opacity: 1.0;stroke-linecap: square;; fill: none" /><ellipse cx="762.67" cy="599.89" rx="12.5" ry="12.5" style="fill: rgb(255,255,255); fill-opacity: 1.0" /><rect x="20" y="17" width="16" height="16" style="fill: rgb(166,206,227); fill-opacity: 1.0" /><g ><text x="40" y="30" style="fill: rgb(0,0,0); fill-opacity: 1.0; font-family: Times New Roman; font-size: 12px;" >Pop_01</text></g><rect x="20" y="37" width="16" height="16" style="fill: rgb(31,120,180); fill-opacity: 1.0" /><g ><text x="40" y="50" style="fill: rgb(0,0,0); fill-opacity: 1.0; font-family: Times New Roman; font-size: 12px;" >Pop_02</text></g><rect x="20" y="57" width="16" height="16" style="fill: rgb(178,223,138); fill-opacity: 1.0" /><g ><text x="40" y="70" style="fill: rgb(0,0,0); fill-opacity: 1.0; font-family: Times New Roman; font-size: 12px;" >Pop_03</text></g><rect x="20" y="77" width="16" height="16" style="fill: rgb(51,160,44); fill-opacity: 1.0" /><g ><text x="40" y="90" style="fill: rgb(0,0,0); fill-opacity: 1.0; font-family: Times New Roman; font-size: 12px;" >Pop_04</text></g><rect x="20" y="97" width="16" height="16" style="fill: rgb(251,154,153); fill-opacity: 1.0" /><g ><text x="40" y="110" style="fill: rgb(0,0,0); fill-opacity: 1.0; font-family: Times New Roman; font-size: 12px;" >Pop_05</text></g><rect x="20" y="117" width="16" height="16" style="fill: rgb(227,26,28); fill-opacity: 1.0" /><g ><text x="40" y="130" style="fill: rgb(0,0,0); fill-opacity: 1.0; font-family: Times New Roman; font-size: 12px;" >Pop_06</text></g><rect x="20" y="137" width="16" height="16" style="fill: rgb(253,191,111); fill-opacity: 1.0" /><g ><text x="40" y="150" style="fill: rgb(0,0,0); fill-opacity: 1.0; font-family: Times New Roman; font-size: 12px;" >Pop_07</text></g><rect x="20" y="157" width="16" height="16" style="fill: rgb(255,127,0); fill-opacity: 1.0" /><g ><text x="40" y="170" style="fill: rgb(0,0,0); fill-opacity: 1.0; font-family: Times New Roman; font-size: 12px;" >Pop_08</text></g><rect x="20" y="177" width="16" height="16" style="fill: rgb(202,178,214); fill-opacity: 1.0" /><g ><text x="40" y="190" style="fill: rgb(0,0,0); fill-opacity: 1.0; font-family: Times New Roman; font-size: 12px;" >Pop_09</text></g><rect x="20" y="197" width="16" height="16" style="fill: rgb(106,61,154); fill-opacity: 1.0" /><g ><text x="40" y="210" style="fill: rgb(0,0,0); fill-opacity: 1.0; font-family: Times New Roman; font-size: 12px;" >Pop_10</text></g><rect x="20" y="217" width="16" height="16" style="fill: rgb(166,206,227); fill-opacity: 1.0" /><g ><text x="40" y="230" style="fill: rgb(0,0,0); fill-opacity: 1.0; font-family: Times New Roman; font-size: 12px;" >Pop_11</text></g><rect x="20" y="237" width="16" height="16" style="fill: rgb(31,120,180); fill-opacity: 1.0" /><g ><text x="40" y="250" style="fill: rgb(0,0,0); fill-opacity: 1.0; font-family: Times New Roman; font-size: 12px;" >Pop_12</text></g><rect x="20" y="257" width="16" height="16" style="fill: rgb(178,223,138); fill-opacity: 1.0" /><g ><text x="40" y="270" style="fill: rgb(0,0,0); fill-opacity: 1.0; font-family: Times New Roman; font-size: 12px;" >Pop_13</text></g><rect x="20" y="277" width="16" height="16" style="fill: rgb(51,160,44); fill-opacity: 1.0" /><g ><text x="40" y="290" style="fill: rgb(0,0,0); fill-opacity: 1.0; font-family: Times New Roman; font-size: 12px;" >Pop_14</text></g><rect x="20" y="297" width="16" height="16" style="fill: rgb(251,154,153); fill-opacity: 1.0" /><g ><text x="40" y="310" style="fill: rgb(0,0,0); fill-opacity: 1.0; font-family: Times New Roman; font-size: 12px;" >Pop_15</text></g><rect x="20" y="317" width="16" height="16" style="fill: rgb(227,26,28); fill-opacity: 1.0" /><g ><text x="40" y="330" style="fill: rgb(0,0,0); fill-opacity: 1.0; font-family: Times New Roman; font-size: 12px;" >Pop_16</text></g><rect x="20" y="337" width="16" height="16" style="fill: rgb(253,191,111); fill-opacity: 1.0" /><g ><text x="40" y="350" style="fill: rgb(0,0,0); fill-opacity: 1.0; font-family: Times New Roman; font-size: 12px;" >Pop_17</text></g></svg>
